<?xml version="1.0" encoding="utf-8"?>
<svg xmlns="http://www.w3.org/2000/svg" xmlns:xlink="http://www.w3.org/1999/xlink" width="600" height="400" viewBox="0 0 2400 1600">
<defs>
  <clipPath id="clip020">
    <rect x="0" y="0" width="2400" height="1600"/>
  </clipPath>
</defs>
<path clip-path="url(#clip020)" d="M0 1600 L2400 1600 L2400 0 L0 0  Z" fill="#ffffff" fill-rule="evenodd" fill-opacity="1"/>
<defs>
  <clipPath id="clip021">
    <rect x="480" y="0" width="1681" height="1600"/>
  </clipPath>
</defs>
<path clip-path="url(#clip020)" d="M257.204 1423.18 L2352.76 1423.18 L2352.76 47.2441 L257.204 47.2441  Z" fill="#ffffff" fill-rule="evenodd" fill-opacity="1"/>
<defs>
  <clipPath id="clip022">
    <rect x="257" y="47" width="2097" height="1377"/>
  </clipPath>
</defs>
<polyline clip-path="url(#clip022)" style="stroke:#000000; stroke-linecap:round; stroke-linejoin:round; stroke-width:2; stroke-opacity:0.1; fill:none" points="606.466,1423.18 606.466,47.2441 "/>
<polyline clip-path="url(#clip022)" style="stroke:#000000; stroke-linecap:round; stroke-linejoin:round; stroke-width:2; stroke-opacity:0.1; fill:none" points="956.474,1423.18 956.474,47.2441 "/>
<polyline clip-path="url(#clip022)" style="stroke:#000000; stroke-linecap:round; stroke-linejoin:round; stroke-width:2; stroke-opacity:0.1; fill:none" points="1306.48,1423.18 1306.48,47.2441 "/>
<polyline clip-path="url(#clip022)" style="stroke:#000000; stroke-linecap:round; stroke-linejoin:round; stroke-width:2; stroke-opacity:0.1; fill:none" points="1656.49,1423.18 1656.49,47.2441 "/>
<polyline clip-path="url(#clip022)" style="stroke:#000000; stroke-linecap:round; stroke-linejoin:round; stroke-width:2; stroke-opacity:0.1; fill:none" points="2006.5,1423.18 2006.5,47.2441 "/>
<polyline clip-path="url(#clip020)" style="stroke:#000000; stroke-linecap:round; stroke-linejoin:round; stroke-width:4; stroke-opacity:1; fill:none" points="257.204,1423.18 2352.76,1423.18 "/>
<polyline clip-path="url(#clip020)" style="stroke:#000000; stroke-linecap:round; stroke-linejoin:round; stroke-width:4; stroke-opacity:1; fill:none" points="606.466,1423.18 606.466,1404.28 "/>
<polyline clip-path="url(#clip020)" style="stroke:#000000; stroke-linecap:round; stroke-linejoin:round; stroke-width:4; stroke-opacity:1; fill:none" points="956.474,1423.18 956.474,1404.28 "/>
<polyline clip-path="url(#clip020)" style="stroke:#000000; stroke-linecap:round; stroke-linejoin:round; stroke-width:4; stroke-opacity:1; fill:none" points="1306.48,1423.18 1306.48,1404.28 "/>
<polyline clip-path="url(#clip020)" style="stroke:#000000; stroke-linecap:round; stroke-linejoin:round; stroke-width:4; stroke-opacity:1; fill:none" points="1656.49,1423.18 1656.49,1404.28 "/>
<polyline clip-path="url(#clip020)" style="stroke:#000000; stroke-linecap:round; stroke-linejoin:round; stroke-width:4; stroke-opacity:1; fill:none" points="2006.5,1423.18 2006.5,1404.28 "/>
<path clip-path="url(#clip020)" d="M552.994 1468.75 L582.67 1468.75 L582.67 1472.69 L552.994 1472.69 L552.994 1468.75 Z" fill="#000000" fill-rule="nonzero" fill-opacity="1" /><path clip-path="url(#clip020)" d="M593.572 1481.64 L601.211 1481.64 L601.211 1455.28 L592.901 1456.95 L592.901 1452.69 L601.165 1451.02 L605.841 1451.02 L605.841 1481.64 L613.48 1481.64 L613.48 1485.58 L593.572 1485.58 L593.572 1481.64 Z" fill="#000000" fill-rule="nonzero" fill-opacity="1" /><path clip-path="url(#clip020)" d="M622.924 1479.7 L627.808 1479.7 L627.808 1485.58 L622.924 1485.58 L622.924 1479.7 Z" fill="#000000" fill-rule="nonzero" fill-opacity="1" /><path clip-path="url(#clip020)" d="M647.993 1454.1 Q644.382 1454.1 642.554 1457.66 Q640.748 1461.2 640.748 1468.33 Q640.748 1475.44 642.554 1479.01 Q644.382 1482.55 647.993 1482.55 Q651.628 1482.55 653.433 1479.01 Q655.262 1475.44 655.262 1468.33 Q655.262 1461.2 653.433 1457.66 Q651.628 1454.1 647.993 1454.1 M647.993 1450.39 Q653.803 1450.39 656.859 1455 Q659.938 1459.58 659.938 1468.33 Q659.938 1477.06 656.859 1481.67 Q653.803 1486.25 647.993 1486.25 Q642.183 1486.25 639.104 1481.67 Q636.049 1477.06 636.049 1468.33 Q636.049 1459.58 639.104 1455 Q642.183 1450.39 647.993 1450.39 Z" fill="#000000" fill-rule="nonzero" fill-opacity="1" /><path clip-path="url(#clip020)" d="M903.5 1468.75 L933.176 1468.75 L933.176 1472.69 L903.5 1472.69 L903.5 1468.75 Z" fill="#000000" fill-rule="nonzero" fill-opacity="1" /><path clip-path="url(#clip020)" d="M953.268 1454.1 Q949.657 1454.1 947.828 1457.66 Q946.023 1461.2 946.023 1468.33 Q946.023 1475.44 947.828 1479.01 Q949.657 1482.55 953.268 1482.55 Q956.902 1482.55 958.708 1479.01 Q960.537 1475.44 960.537 1468.33 Q960.537 1461.2 958.708 1457.66 Q956.902 1454.1 953.268 1454.1 M953.268 1450.39 Q959.078 1450.39 962.134 1455 Q965.213 1459.58 965.213 1468.33 Q965.213 1477.06 962.134 1481.67 Q959.078 1486.25 953.268 1486.25 Q947.458 1486.25 944.379 1481.67 Q941.324 1477.06 941.324 1468.33 Q941.324 1459.58 944.379 1455 Q947.458 1450.39 953.268 1450.39 Z" fill="#000000" fill-rule="nonzero" fill-opacity="1" /><path clip-path="url(#clip020)" d="M973.43 1479.7 L978.314 1479.7 L978.314 1485.58 L973.43 1485.58 L973.43 1479.7 Z" fill="#000000" fill-rule="nonzero" fill-opacity="1" /><path clip-path="url(#clip020)" d="M988.546 1451.02 L1006.9 1451.02 L1006.9 1454.96 L992.828 1454.96 L992.828 1463.43 Q993.847 1463.08 994.865 1462.92 Q995.884 1462.73 996.902 1462.73 Q1002.69 1462.73 1006.07 1465.9 Q1009.45 1469.08 1009.45 1474.49 Q1009.45 1480.07 1005.98 1483.17 Q1002.5 1486.25 996.185 1486.25 Q994.009 1486.25 991.74 1485.88 Q989.495 1485.51 987.088 1484.77 L987.088 1480.07 Q989.171 1481.2 991.393 1481.76 Q993.615 1482.32 996.092 1482.32 Q1000.1 1482.32 1002.43 1480.21 Q1004.77 1478.1 1004.77 1474.49 Q1004.77 1470.88 1002.43 1468.77 Q1000.1 1466.67 996.092 1466.67 Q994.217 1466.67 992.342 1467.08 Q990.49 1467.5 988.546 1468.38 L988.546 1451.02 Z" fill="#000000" fill-rule="nonzero" fill-opacity="1" /><path clip-path="url(#clip020)" d="M1283.87 1454.1 Q1280.26 1454.1 1278.43 1457.66 Q1276.62 1461.2 1276.62 1468.33 Q1276.62 1475.44 1278.43 1479.01 Q1280.26 1482.55 1283.87 1482.55 Q1287.5 1482.55 1289.31 1479.01 Q1291.14 1475.44 1291.14 1468.33 Q1291.14 1461.2 1289.31 1457.66 Q1287.5 1454.1 1283.87 1454.1 M1283.87 1450.39 Q1289.68 1450.39 1292.73 1455 Q1295.81 1459.58 1295.81 1468.33 Q1295.81 1477.06 1292.73 1481.67 Q1289.68 1486.25 1283.87 1486.25 Q1278.06 1486.25 1274.98 1481.67 Q1271.92 1477.06 1271.92 1468.33 Q1271.92 1459.58 1274.98 1455 Q1278.06 1450.39 1283.87 1450.39 Z" fill="#000000" fill-rule="nonzero" fill-opacity="1" /><path clip-path="url(#clip020)" d="M1304.03 1479.7 L1308.91 1479.7 L1308.91 1485.58 L1304.03 1485.58 L1304.03 1479.7 Z" fill="#000000" fill-rule="nonzero" fill-opacity="1" /><path clip-path="url(#clip020)" d="M1329.1 1454.1 Q1325.49 1454.1 1323.66 1457.66 Q1321.85 1461.2 1321.85 1468.33 Q1321.85 1475.44 1323.66 1479.01 Q1325.49 1482.55 1329.1 1482.55 Q1332.73 1482.55 1334.54 1479.01 Q1336.37 1475.44 1336.37 1468.33 Q1336.37 1461.2 1334.54 1457.66 Q1332.73 1454.1 1329.1 1454.1 M1329.1 1450.39 Q1334.91 1450.39 1337.96 1455 Q1341.04 1459.58 1341.04 1468.33 Q1341.04 1477.06 1337.96 1481.67 Q1334.91 1486.25 1329.1 1486.25 Q1323.29 1486.25 1320.21 1481.67 Q1317.15 1477.06 1317.15 1468.33 Q1317.15 1459.58 1320.21 1455 Q1323.29 1450.39 1329.1 1450.39 Z" fill="#000000" fill-rule="nonzero" fill-opacity="1" /><path clip-path="url(#clip020)" d="M1634.37 1454.1 Q1630.76 1454.1 1628.93 1457.66 Q1627.13 1461.2 1627.13 1468.33 Q1627.13 1475.44 1628.93 1479.01 Q1630.76 1482.55 1634.37 1482.55 Q1638.01 1482.55 1639.81 1479.01 Q1641.64 1475.44 1641.64 1468.33 Q1641.64 1461.2 1639.81 1457.66 Q1638.01 1454.1 1634.37 1454.1 M1634.37 1450.39 Q1640.18 1450.39 1643.24 1455 Q1646.32 1459.58 1646.32 1468.33 Q1646.32 1477.06 1643.24 1481.67 Q1640.18 1486.25 1634.37 1486.25 Q1628.56 1486.25 1625.48 1481.67 Q1622.43 1477.06 1622.43 1468.33 Q1622.43 1459.58 1625.48 1455 Q1628.56 1450.39 1634.37 1450.39 Z" fill="#000000" fill-rule="nonzero" fill-opacity="1" /><path clip-path="url(#clip020)" d="M1654.54 1479.7 L1659.42 1479.7 L1659.42 1485.58 L1654.54 1485.58 L1654.54 1479.7 Z" fill="#000000" fill-rule="nonzero" fill-opacity="1" /><path clip-path="url(#clip020)" d="M1669.65 1451.02 L1688.01 1451.02 L1688.01 1454.96 L1673.93 1454.96 L1673.93 1463.43 Q1674.95 1463.08 1675.97 1462.92 Q1676.99 1462.73 1678.01 1462.73 Q1683.79 1462.73 1687.17 1465.9 Q1690.55 1469.08 1690.55 1474.49 Q1690.55 1480.07 1687.08 1483.17 Q1683.61 1486.25 1677.29 1486.25 Q1675.11 1486.25 1672.85 1485.88 Q1670.6 1485.51 1668.19 1484.77 L1668.19 1480.07 Q1670.28 1481.2 1672.5 1481.76 Q1674.72 1482.32 1677.2 1482.32 Q1681.2 1482.32 1683.54 1480.21 Q1685.88 1478.1 1685.88 1474.49 Q1685.88 1470.88 1683.54 1468.77 Q1681.2 1466.67 1677.2 1466.67 Q1675.32 1466.67 1673.45 1467.08 Q1671.6 1467.5 1669.65 1468.38 L1669.65 1451.02 Z" fill="#000000" fill-rule="nonzero" fill-opacity="1" /><path clip-path="url(#clip020)" d="M1973.65 1481.64 L1981.29 1481.64 L1981.29 1455.28 L1972.98 1456.95 L1972.98 1452.69 L1981.25 1451.02 L1985.92 1451.02 L1985.92 1481.64 L1993.56 1481.64 L1993.56 1485.58 L1973.65 1485.58 L1973.65 1481.64 Z" fill="#000000" fill-rule="nonzero" fill-opacity="1" /><path clip-path="url(#clip020)" d="M2003 1479.7 L2007.89 1479.7 L2007.89 1485.58 L2003 1485.58 L2003 1479.7 Z" fill="#000000" fill-rule="nonzero" fill-opacity="1" /><path clip-path="url(#clip020)" d="M2028.07 1454.1 Q2024.46 1454.1 2022.63 1457.66 Q2020.83 1461.2 2020.83 1468.33 Q2020.83 1475.44 2022.63 1479.01 Q2024.46 1482.55 2028.07 1482.55 Q2031.71 1482.55 2033.51 1479.01 Q2035.34 1475.44 2035.34 1468.33 Q2035.34 1461.2 2033.51 1457.66 Q2031.71 1454.1 2028.07 1454.1 M2028.07 1450.39 Q2033.88 1450.39 2036.94 1455 Q2040.02 1459.58 2040.02 1468.33 Q2040.02 1477.06 2036.94 1481.67 Q2033.88 1486.25 2028.07 1486.25 Q2022.26 1486.25 2019.18 1481.67 Q2016.13 1477.06 2016.13 1468.33 Q2016.13 1459.58 2019.18 1455 Q2022.26 1450.39 2028.07 1450.39 Z" fill="#000000" fill-rule="nonzero" fill-opacity="1" /><path clip-path="url(#clip020)" d="M1243.73 1553.98 L1243.73 1532.4 L1249.58 1532.4 L1249.58 1553.75 Q1249.58 1558.81 1251.56 1561.36 Q1253.53 1563.87 1257.48 1563.87 Q1262.22 1563.87 1264.96 1560.85 Q1267.72 1557.83 1267.72 1552.61 L1267.72 1532.4 L1273.58 1532.4 L1273.58 1568.04 L1267.72 1568.04 L1267.72 1562.57 Q1265.59 1565.82 1262.76 1567.41 Q1259.96 1568.97 1256.23 1568.97 Q1250.09 1568.97 1246.91 1565.15 Q1243.73 1561.33 1243.73 1553.98 M1258.46 1531.54 L1258.46 1531.54 Z" fill="#000000" fill-rule="nonzero" fill-opacity="1" /><path clip-path="url(#clip020)" d="M1285.1 1518.52 L1298.6 1518.52 L1298.6 1523.07 L1290.96 1523.07 L1290.96 1572.09 L1298.6 1572.09 L1298.6 1576.64 L1285.1 1576.64 L1285.1 1518.52 Z" fill="#000000" fill-rule="nonzero" fill-opacity="1" /><path clip-path="url(#clip020)" d="M1313.02 1562.63 L1323.52 1562.63 L1323.52 1526.38 L1312.09 1528.67 L1312.09 1522.82 L1323.46 1520.52 L1329.89 1520.52 L1329.89 1562.63 L1340.39 1562.63 L1340.39 1568.04 L1313.02 1568.04 L1313.02 1562.63 Z" fill="#000000" fill-rule="nonzero" fill-opacity="1" /><path clip-path="url(#clip020)" d="M1366.23 1518.52 L1366.23 1576.64 L1352.74 1576.64 L1352.74 1572.09 L1360.35 1572.09 L1360.35 1523.07 L1352.74 1523.07 L1352.74 1518.52 L1366.23 1518.52 Z" fill="#000000" fill-rule="nonzero" fill-opacity="1" /><polyline clip-path="url(#clip022)" style="stroke:#000000; stroke-linecap:round; stroke-linejoin:round; stroke-width:2; stroke-opacity:0.1; fill:none" points="257.204,1194.33 2352.76,1194.33 "/>
<polyline clip-path="url(#clip022)" style="stroke:#000000; stroke-linecap:round; stroke-linejoin:round; stroke-width:2; stroke-opacity:0.1; fill:none" points="257.204,964.809 2352.76,964.809 "/>
<polyline clip-path="url(#clip022)" style="stroke:#000000; stroke-linecap:round; stroke-linejoin:round; stroke-width:2; stroke-opacity:0.1; fill:none" points="257.204,735.287 2352.76,735.287 "/>
<polyline clip-path="url(#clip022)" style="stroke:#000000; stroke-linecap:round; stroke-linejoin:round; stroke-width:2; stroke-opacity:0.1; fill:none" points="257.204,505.766 2352.76,505.766 "/>
<polyline clip-path="url(#clip022)" style="stroke:#000000; stroke-linecap:round; stroke-linejoin:round; stroke-width:2; stroke-opacity:0.1; fill:none" points="257.204,276.244 2352.76,276.244 "/>
<polyline clip-path="url(#clip020)" style="stroke:#000000; stroke-linecap:round; stroke-linejoin:round; stroke-width:4; stroke-opacity:1; fill:none" points="257.204,1423.18 257.204,47.2441 "/>
<polyline clip-path="url(#clip020)" style="stroke:#000000; stroke-linecap:round; stroke-linejoin:round; stroke-width:4; stroke-opacity:1; fill:none" points="257.204,1194.33 276.102,1194.33 "/>
<polyline clip-path="url(#clip020)" style="stroke:#000000; stroke-linecap:round; stroke-linejoin:round; stroke-width:4; stroke-opacity:1; fill:none" points="257.204,964.809 276.102,964.809 "/>
<polyline clip-path="url(#clip020)" style="stroke:#000000; stroke-linecap:round; stroke-linejoin:round; stroke-width:4; stroke-opacity:1; fill:none" points="257.204,735.287 276.102,735.287 "/>
<polyline clip-path="url(#clip020)" style="stroke:#000000; stroke-linecap:round; stroke-linejoin:round; stroke-width:4; stroke-opacity:1; fill:none" points="257.204,505.766 276.102,505.766 "/>
<polyline clip-path="url(#clip020)" style="stroke:#000000; stroke-linecap:round; stroke-linejoin:round; stroke-width:4; stroke-opacity:1; fill:none" points="257.204,276.244 276.102,276.244 "/>
<path clip-path="url(#clip020)" d="M114.26 1194.78 L143.936 1194.78 L143.936 1198.72 L114.26 1198.72 L114.26 1194.78 Z" fill="#000000" fill-rule="nonzero" fill-opacity="1" /><path clip-path="url(#clip020)" d="M154.839 1207.68 L162.477 1207.68 L162.477 1181.31 L154.167 1182.98 L154.167 1178.72 L162.431 1177.05 L167.107 1177.05 L167.107 1207.68 L174.746 1207.68 L174.746 1211.61 L154.839 1211.61 L154.839 1207.68 Z" fill="#000000" fill-rule="nonzero" fill-opacity="1" /><path clip-path="url(#clip020)" d="M184.19 1205.73 L189.075 1205.73 L189.075 1211.61 L184.19 1211.61 L184.19 1205.73 Z" fill="#000000" fill-rule="nonzero" fill-opacity="1" /><path clip-path="url(#clip020)" d="M209.26 1180.13 Q205.649 1180.13 203.82 1183.69 Q202.014 1187.24 202.014 1194.37 Q202.014 1201.47 203.82 1205.04 Q205.649 1208.58 209.26 1208.58 Q212.894 1208.58 214.699 1205.04 Q216.528 1201.47 216.528 1194.37 Q216.528 1187.24 214.699 1183.69 Q212.894 1180.13 209.26 1180.13 M209.26 1176.43 Q215.07 1176.43 218.125 1181.03 Q221.204 1185.62 221.204 1194.37 Q221.204 1203.09 218.125 1207.7 Q215.07 1212.28 209.26 1212.28 Q203.449 1212.28 200.371 1207.7 Q197.315 1203.09 197.315 1194.37 Q197.315 1185.62 200.371 1181.03 Q203.449 1176.43 209.26 1176.43 Z" fill="#000000" fill-rule="nonzero" fill-opacity="1" /><path clip-path="url(#clip020)" d="M115.256 965.26 L144.931 965.26 L144.931 969.195 L115.256 969.195 L115.256 965.26 Z" fill="#000000" fill-rule="nonzero" fill-opacity="1" /><path clip-path="url(#clip020)" d="M165.024 950.608 Q161.413 950.608 159.584 954.172 Q157.778 957.714 157.778 964.844 Q157.778 971.95 159.584 975.515 Q161.413 979.057 165.024 979.057 Q168.658 979.057 170.464 975.515 Q172.292 971.95 172.292 964.844 Q172.292 957.714 170.464 954.172 Q168.658 950.608 165.024 950.608 M165.024 946.904 Q170.834 946.904 173.889 951.51 Q176.968 956.094 176.968 964.844 Q176.968 973.57 173.889 978.177 Q170.834 982.76 165.024 982.76 Q159.214 982.76 156.135 978.177 Q153.079 973.57 153.079 964.844 Q153.079 956.094 156.135 951.51 Q159.214 946.904 165.024 946.904 Z" fill="#000000" fill-rule="nonzero" fill-opacity="1" /><path clip-path="url(#clip020)" d="M185.186 976.209 L190.07 976.209 L190.07 982.089 L185.186 982.089 L185.186 976.209 Z" fill="#000000" fill-rule="nonzero" fill-opacity="1" /><path clip-path="url(#clip020)" d="M200.301 947.529 L218.658 947.529 L218.658 951.464 L204.584 951.464 L204.584 959.936 Q205.602 959.589 206.621 959.427 Q207.639 959.242 208.658 959.242 Q214.445 959.242 217.824 962.413 Q221.204 965.584 221.204 971.001 Q221.204 976.58 217.732 979.682 Q214.26 982.76 207.94 982.76 Q205.764 982.76 203.496 982.39 Q201.25 982.019 198.843 981.279 L198.843 976.58 Q200.926 977.714 203.149 978.269 Q205.371 978.825 207.848 978.825 Q211.852 978.825 214.19 976.719 Q216.528 974.612 216.528 971.001 Q216.528 967.39 214.19 965.283 Q211.852 963.177 207.848 963.177 Q205.973 963.177 204.098 963.594 Q202.246 964.01 200.301 964.89 L200.301 947.529 Z" fill="#000000" fill-rule="nonzero" fill-opacity="1" /><path clip-path="url(#clip020)" d="M164.028 721.086 Q160.417 721.086 158.589 724.651 Q156.783 728.192 156.783 735.322 Q156.783 742.428 158.589 745.993 Q160.417 749.535 164.028 749.535 Q167.663 749.535 169.468 745.993 Q171.297 742.428 171.297 735.322 Q171.297 728.192 169.468 724.651 Q167.663 721.086 164.028 721.086 M164.028 717.382 Q169.839 717.382 172.894 721.989 Q175.973 726.572 175.973 735.322 Q175.973 744.049 172.894 748.655 Q169.839 753.239 164.028 753.239 Q158.218 753.239 155.14 748.655 Q152.084 744.049 152.084 735.322 Q152.084 726.572 155.14 721.989 Q158.218 717.382 164.028 717.382 Z" fill="#000000" fill-rule="nonzero" fill-opacity="1" /><path clip-path="url(#clip020)" d="M184.19 746.688 L189.075 746.688 L189.075 752.567 L184.19 752.567 L184.19 746.688 Z" fill="#000000" fill-rule="nonzero" fill-opacity="1" /><path clip-path="url(#clip020)" d="M209.26 721.086 Q205.649 721.086 203.82 724.651 Q202.014 728.192 202.014 735.322 Q202.014 742.428 203.82 745.993 Q205.649 749.535 209.26 749.535 Q212.894 749.535 214.699 745.993 Q216.528 742.428 216.528 735.322 Q216.528 728.192 214.699 724.651 Q212.894 721.086 209.26 721.086 M209.26 717.382 Q215.07 717.382 218.125 721.989 Q221.204 726.572 221.204 735.322 Q221.204 744.049 218.125 748.655 Q215.07 753.239 209.26 753.239 Q203.449 753.239 200.371 748.655 Q197.315 744.049 197.315 735.322 Q197.315 726.572 200.371 721.989 Q203.449 717.382 209.26 717.382 Z" fill="#000000" fill-rule="nonzero" fill-opacity="1" /><path clip-path="url(#clip020)" d="M165.024 491.564 Q161.413 491.564 159.584 495.129 Q157.778 498.671 157.778 505.8 Q157.778 512.907 159.584 516.472 Q161.413 520.013 165.024 520.013 Q168.658 520.013 170.464 516.472 Q172.292 512.907 172.292 505.8 Q172.292 498.671 170.464 495.129 Q168.658 491.564 165.024 491.564 M165.024 487.861 Q170.834 487.861 173.889 492.467 Q176.968 497.05 176.968 505.8 Q176.968 514.527 173.889 519.134 Q170.834 523.717 165.024 523.717 Q159.214 523.717 156.135 519.134 Q153.079 514.527 153.079 505.8 Q153.079 497.05 156.135 492.467 Q159.214 487.861 165.024 487.861 Z" fill="#000000" fill-rule="nonzero" fill-opacity="1" /><path clip-path="url(#clip020)" d="M185.186 517.166 L190.07 517.166 L190.07 523.046 L185.186 523.046 L185.186 517.166 Z" fill="#000000" fill-rule="nonzero" fill-opacity="1" /><path clip-path="url(#clip020)" d="M200.301 488.486 L218.658 488.486 L218.658 492.421 L204.584 492.421 L204.584 500.893 Q205.602 500.546 206.621 500.384 Q207.639 500.199 208.658 500.199 Q214.445 500.199 217.824 503.37 Q221.204 506.541 221.204 511.958 Q221.204 517.536 217.732 520.638 Q214.26 523.717 207.94 523.717 Q205.764 523.717 203.496 523.347 Q201.25 522.976 198.843 522.235 L198.843 517.536 Q200.926 518.671 203.149 519.226 Q205.371 519.782 207.848 519.782 Q211.852 519.782 214.19 517.675 Q216.528 515.569 216.528 511.958 Q216.528 508.347 214.19 506.24 Q211.852 504.134 207.848 504.134 Q205.973 504.134 204.098 504.55 Q202.246 504.967 200.301 505.847 L200.301 488.486 Z" fill="#000000" fill-rule="nonzero" fill-opacity="1" /><path clip-path="url(#clip020)" d="M154.839 289.589 L162.477 289.589 L162.477 263.223 L154.167 264.89 L154.167 260.631 L162.431 258.964 L167.107 258.964 L167.107 289.589 L174.746 289.589 L174.746 293.524 L154.839 293.524 L154.839 289.589 Z" fill="#000000" fill-rule="nonzero" fill-opacity="1" /><path clip-path="url(#clip020)" d="M184.19 287.644 L189.075 287.644 L189.075 293.524 L184.19 293.524 L184.19 287.644 Z" fill="#000000" fill-rule="nonzero" fill-opacity="1" /><path clip-path="url(#clip020)" d="M209.26 262.043 Q205.649 262.043 203.82 265.607 Q202.014 269.149 202.014 276.279 Q202.014 283.385 203.82 286.95 Q205.649 290.492 209.26 290.492 Q212.894 290.492 214.699 286.95 Q216.528 283.385 216.528 276.279 Q216.528 269.149 214.699 265.607 Q212.894 262.043 209.26 262.043 M209.26 258.339 Q215.07 258.339 218.125 262.945 Q221.204 267.529 221.204 276.279 Q221.204 285.006 218.125 289.612 Q215.07 294.195 209.26 294.195 Q203.449 294.195 200.371 289.612 Q197.315 285.006 197.315 276.279 Q197.315 267.529 200.371 262.945 Q203.449 258.339 209.26 258.339 Z" fill="#000000" fill-rule="nonzero" fill-opacity="1" /><path clip-path="url(#clip020)" d="M49.9359 796.466 L28.3562 796.466 L28.3562 790.61 L49.7131 790.61 Q54.7739 790.61 57.3202 788.636 Q59.8346 786.663 59.8346 782.716 Q59.8346 777.974 56.8109 775.236 Q53.7872 772.467 48.5673 772.467 L28.3562 772.467 L28.3562 766.611 L64.0042 766.611 L64.0042 772.467 L58.5296 772.467 Q61.7762 774.6 63.3676 777.433 Q64.9272 780.233 64.9272 783.957 Q64.9272 790.1 61.1078 793.283 Q57.2883 796.466 49.9359 796.466 M27.4968 781.729 L27.4968 781.729 Z" fill="#000000" fill-rule="nonzero" fill-opacity="1" /><path clip-path="url(#clip020)" d="M14.479 755.089 L14.479 741.594 L19.0304 741.594 L19.0304 749.232 L68.0464 749.232 L68.0464 741.594 L72.5979 741.594 L72.5979 755.089 L14.479 755.089 Z" fill="#000000" fill-rule="nonzero" fill-opacity="1" /><path clip-path="url(#clip020)" d="M58.5933 722.751 L58.5933 700.312 L64.0042 700.312 L64.0042 730.485 L58.5933 730.485 Q54.8057 726.825 48.44 720.523 Q42.0425 714.189 40.1964 712.566 Q36.7271 709.479 34.34 708.269 Q31.921 707.028 29.5975 707.028 Q25.8099 707.028 23.4228 709.701 Q21.0356 712.343 21.0356 716.608 Q21.0356 719.632 22.086 723.006 Q23.1363 726.348 25.2688 730.167 L18.7758 730.167 Q17.2162 726.284 16.4205 722.91 Q15.6248 719.536 15.6248 716.736 Q15.6248 709.351 19.3169 704.959 Q23.009 700.567 29.1837 700.567 Q32.112 700.567 34.7537 701.681 Q37.3637 702.763 40.9285 705.659 Q41.8515 706.455 46.2757 710.72 Q50.668 714.985 58.5933 722.751 Z" fill="#000000" fill-rule="nonzero" fill-opacity="1" /><path clip-path="url(#clip020)" d="M14.479 673.958 L72.5979 673.958 L72.5979 687.453 L68.0464 687.453 L68.0464 679.846 L19.0304 679.846 L19.0304 687.453 L14.479 687.453 L14.479 673.958 Z" fill="#000000" fill-rule="nonzero" fill-opacity="1" /><polyline clip-path="url(#clip022)" style="stroke:#009af9; stroke-linecap:round; stroke-linejoin:round; stroke-width:4; stroke-opacity:1; fill:none" points="2006.5,276.244 2127.82,372.866 2291.28,668.968 2163.43,1060.33 1660.65,1341.51 873.103,1318.96 364.699,935.364 522.131,339.195 1322.37,86.1857 2172.48,420.734 2150.52,1074.54 1279.89,1384.24 396.229,990.516 568.479,302.586 1588.65,113.03 2289.52,658.6 1779.44,1305.59 677.961,1236.85 354.784,556.52 1218.06,88.6966 2199.03,454.452 2021.49,1184.28 940.563,1338.5 316.582,727.405 983.309,121.667 2075.61,326.56 2163.4,1060.37 1166.61,1377.96 335.52,861.9 795.34,179.328 1926.86,229.384 2254.88,921.452 1361.05,1383.49 394,987.07 637.507,256.753 1746.14,153.635 2292.32,794.548 1547.19,1364.99 483.055,1095.67 506.017,353.309 1540.11,104.439 2291.46,670.166 1733.24,1321.06 609.616,1196.39 397.356,478.336 1352.43,86.8018 2254.61,548.529 1892.99,1258.28 764.322,1278.46 334.574,611.835 1163.93,92.8673 2179.96,429.747 2041.09,1170.47 961.73,1343.84 316.512,733.74 978.711,122.717 2076.42,327.215 2160.89,1063.2 1158.48,1377.18 333.546,855.208 806.228,175.085 1938.52,235.628 2249.49,932.876 1343.94,1384.01 386.89,975.691 652.257,248.063 1766.21,160.346 2290.35,807.304 1527.5,1368.09 471.994,1084.55 519.2,341.703 1564.34,108.511 2293.45,684.716 1711.64,1327.61 592.382,1184.91 408.658,461.782 1376.15,87.7115 2261.4,564.059 1873.01,1267.67 742.029,1268.61 338.996,597.709 1185.59,90.9607 2189.58,441.88 2026.15,1181.07 939.327,1338.17 316.776,720.219 998.855,118.241 1555.44,106.966 "/>
<path clip-path="url(#clip020)" d="M1835.04 1377.32 L2282.9 1377.32 L2282.9 1273.64 L1835.04 1273.64  Z" fill="#ffffff" fill-rule="evenodd" fill-opacity="1"/>
<polyline clip-path="url(#clip020)" style="stroke:#000000; stroke-linecap:round; stroke-linejoin:round; stroke-width:4; stroke-opacity:1; fill:none" points="1835.04,1377.32 2282.9,1377.32 2282.9,1273.64 1835.04,1273.64 1835.04,1377.32 "/>
<polyline clip-path="url(#clip020)" style="stroke:#009af9; stroke-linecap:round; stroke-linejoin:round; stroke-width:4; stroke-opacity:1; fill:none" points="1858.32,1325.48 1998.03,1325.48 "/>
<path clip-path="url(#clip020)" d="M2031.94 1306.78 Q2028.83 1312.11 2027.33 1317.32 Q2025.83 1322.52 2025.83 1327.87 Q2025.83 1333.22 2027.33 1338.47 Q2028.86 1343.7 2031.94 1349.01 L2028.23 1349.01 Q2024.76 1343.57 2023.02 1338.31 Q2021.31 1333.06 2021.31 1327.87 Q2021.31 1322.71 2023.02 1317.48 Q2024.74 1312.25 2028.23 1306.78 L2031.94 1306.78 Z" fill="#000000" fill-rule="nonzero" fill-opacity="1" /><path clip-path="url(#clip020)" d="M2039.76 1332.52 L2039.76 1316.83 L2044.02 1316.83 L2044.02 1332.36 Q2044.02 1336.04 2045.45 1337.89 Q2046.89 1339.72 2049.76 1339.72 Q2053.21 1339.72 2055.2 1337.52 Q2057.21 1335.32 2057.21 1331.53 L2057.21 1316.83 L2061.47 1316.83 L2061.47 1342.76 L2057.21 1342.76 L2057.21 1338.77 Q2055.66 1341.13 2053.6 1342.29 Q2051.57 1343.43 2048.86 1343.43 Q2044.39 1343.43 2042.08 1340.65 Q2039.76 1337.87 2039.76 1332.52 M2050.48 1316.2 L2050.48 1316.2 Z" fill="#000000" fill-rule="nonzero" fill-opacity="1" /><path clip-path="url(#clip020)" d="M2069.85 1306.74 L2079.67 1306.74 L2079.67 1310.05 L2074.11 1310.05 L2074.11 1345.7 L2079.67 1345.7 L2079.67 1349.01 L2069.85 1349.01 L2069.85 1306.74 Z" fill="#000000" fill-rule="nonzero" fill-opacity="1" /><path clip-path="url(#clip020)" d="M2090.15 1338.82 L2097.79 1338.82 L2097.79 1312.45 L2089.48 1314.12 L2089.48 1309.86 L2097.75 1308.2 L2102.42 1308.2 L2102.42 1338.82 L2110.06 1338.82 L2110.06 1342.76 L2090.15 1342.76 L2090.15 1338.82 Z" fill="#000000" fill-rule="nonzero" fill-opacity="1" /><path clip-path="url(#clip020)" d="M2128.86 1306.74 L2128.86 1349.01 L2119.04 1349.01 L2119.04 1345.7 L2124.57 1345.7 L2124.57 1310.05 L2119.04 1310.05 L2119.04 1306.74 L2128.86 1306.74 Z" fill="#000000" fill-rule="nonzero" fill-opacity="1" /><path clip-path="url(#clip020)" d="M2138.49 1336.88 L2143.37 1336.88 L2143.37 1340.86 L2139.57 1348.26 L2136.59 1348.26 L2138.49 1340.86 L2138.49 1336.88 Z" fill="#000000" fill-rule="nonzero" fill-opacity="1" /><path clip-path="url(#clip020)" d="M2152.03 1332.52 L2152.03 1316.83 L2156.29 1316.83 L2156.29 1332.36 Q2156.29 1336.04 2157.72 1337.89 Q2159.16 1339.72 2162.03 1339.72 Q2165.48 1339.72 2167.47 1337.52 Q2169.48 1335.32 2169.48 1331.53 L2169.48 1316.83 L2173.74 1316.83 L2173.74 1342.76 L2169.48 1342.76 L2169.48 1338.77 Q2167.93 1341.13 2165.87 1342.29 Q2163.83 1343.43 2161.13 1343.43 Q2156.66 1343.43 2154.34 1340.65 Q2152.03 1337.87 2152.03 1332.52 M2162.75 1316.2 L2162.75 1316.2 Z" fill="#000000" fill-rule="nonzero" fill-opacity="1" /><path clip-path="url(#clip020)" d="M2182.12 1306.74 L2191.94 1306.74 L2191.94 1310.05 L2186.38 1310.05 L2186.38 1345.7 L2191.94 1345.7 L2191.94 1349.01 L2182.12 1349.01 L2182.12 1306.74 Z" fill="#000000" fill-rule="nonzero" fill-opacity="1" /><path clip-path="url(#clip020)" d="M2205.64 1338.82 L2221.96 1338.82 L2221.96 1342.76 L2200.01 1342.76 L2200.01 1338.82 Q2202.68 1336.07 2207.26 1331.44 Q2211.87 1326.78 2213.05 1325.44 Q2215.29 1322.92 2216.17 1321.18 Q2217.07 1319.42 2217.07 1317.73 Q2217.07 1314.98 2215.13 1313.24 Q2213.21 1311.51 2210.11 1311.51 Q2207.91 1311.51 2205.45 1312.27 Q2203.02 1313.03 2200.25 1314.58 L2200.25 1309.86 Q2203.07 1308.73 2205.52 1308.15 Q2207.98 1307.57 2210.01 1307.57 Q2215.38 1307.57 2218.58 1310.26 Q2221.77 1312.94 2221.77 1317.43 Q2221.77 1319.56 2220.96 1321.48 Q2220.18 1323.38 2218.07 1325.97 Q2217.49 1326.64 2214.39 1329.86 Q2211.29 1333.06 2205.64 1338.82 Z" fill="#000000" fill-rule="nonzero" fill-opacity="1" /><path clip-path="url(#clip020)" d="M2241.12 1306.74 L2241.12 1349.01 L2231.31 1349.01 L2231.31 1345.7 L2236.84 1345.7 L2236.84 1310.05 L2231.31 1310.05 L2231.31 1306.74 L2241.12 1306.74 Z" fill="#000000" fill-rule="nonzero" fill-opacity="1" /><path clip-path="url(#clip020)" d="M2249 1306.78 L2252.7 1306.78 Q2256.17 1312.25 2257.88 1317.48 Q2259.62 1322.71 2259.62 1327.87 Q2259.62 1333.06 2257.88 1338.31 Q2256.17 1343.57 2252.7 1349.01 L2249 1349.01 Q2252.07 1343.7 2253.58 1338.47 Q2255.11 1333.22 2255.11 1327.87 Q2255.11 1322.52 2253.58 1317.32 Q2252.07 1312.11 2249 1306.78 Z" fill="#000000" fill-rule="nonzero" fill-opacity="1" /></svg>
