<?xml version="1.0" encoding="utf-8"?>
<svg xmlns="http://www.w3.org/2000/svg" xmlns:xlink="http://www.w3.org/1999/xlink" width="600" height="400" viewBox="0 0 2400 1600">
<defs>
  <clipPath id="clip230">
    <rect x="0" y="0" width="2400" height="1600"/>
  </clipPath>
</defs>
<path clip-path="url(#clip230)" d="M0 1600 L2400 1600 L2400 0 L0 0  Z" fill="#ffffff" fill-rule="evenodd" fill-opacity="1"/>
<defs>
  <clipPath id="clip231">
    <rect x="193" y="47" width="2160" height="1440"/>
  </clipPath>
</defs>
<path clip-path="url(#clip230)" d="M193.936 1486.45 L2352.76 1486.45 L2352.76 47.2441 L193.936 47.2441  Z" fill="#ffffff" fill-rule="evenodd" fill-opacity="1"/>
<polyline clip-path="url(#clip231)" style="stroke:#000000; stroke-linecap:round; stroke-linejoin:round; stroke-width:2; stroke-opacity:0.1; fill:none" points="553.743,1486.45 553.743,47.2441 "/>
<polyline clip-path="url(#clip231)" style="stroke:#000000; stroke-linecap:round; stroke-linejoin:round; stroke-width:2; stroke-opacity:0.1; fill:none" points="914.318,1486.45 914.318,47.2441 "/>
<polyline clip-path="url(#clip231)" style="stroke:#000000; stroke-linecap:round; stroke-linejoin:round; stroke-width:2; stroke-opacity:0.1; fill:none" points="1274.89,1486.45 1274.89,47.2441 "/>
<polyline clip-path="url(#clip231)" style="stroke:#000000; stroke-linecap:round; stroke-linejoin:round; stroke-width:2; stroke-opacity:0.1; fill:none" points="1635.47,1486.45 1635.47,47.2441 "/>
<polyline clip-path="url(#clip231)" style="stroke:#000000; stroke-linecap:round; stroke-linejoin:round; stroke-width:2; stroke-opacity:0.1; fill:none" points="1996.05,1486.45 1996.05,47.2441 "/>
<polyline clip-path="url(#clip231)" style="stroke:#000000; stroke-linecap:round; stroke-linejoin:round; stroke-width:2; stroke-opacity:0.1; fill:none" points="193.936,1247.08 2352.76,1247.08 "/>
<polyline clip-path="url(#clip231)" style="stroke:#000000; stroke-linecap:round; stroke-linejoin:round; stroke-width:2; stroke-opacity:0.1; fill:none" points="193.936,1007 2352.76,1007 "/>
<polyline clip-path="url(#clip231)" style="stroke:#000000; stroke-linecap:round; stroke-linejoin:round; stroke-width:2; stroke-opacity:0.1; fill:none" points="193.936,766.925 2352.76,766.925 "/>
<polyline clip-path="url(#clip231)" style="stroke:#000000; stroke-linecap:round; stroke-linejoin:round; stroke-width:2; stroke-opacity:0.1; fill:none" points="193.936,526.849 2352.76,526.849 "/>
<polyline clip-path="url(#clip231)" style="stroke:#000000; stroke-linecap:round; stroke-linejoin:round; stroke-width:2; stroke-opacity:0.1; fill:none" points="193.936,286.774 2352.76,286.774 "/>
<polyline clip-path="url(#clip230)" style="stroke:#000000; stroke-linecap:round; stroke-linejoin:round; stroke-width:4; stroke-opacity:1; fill:none" points="193.936,1486.45 2352.76,1486.45 "/>
<polyline clip-path="url(#clip230)" style="stroke:#000000; stroke-linecap:round; stroke-linejoin:round; stroke-width:4; stroke-opacity:1; fill:none" points="553.743,1486.45 553.743,1467.55 "/>
<polyline clip-path="url(#clip230)" style="stroke:#000000; stroke-linecap:round; stroke-linejoin:round; stroke-width:4; stroke-opacity:1; fill:none" points="914.318,1486.45 914.318,1467.55 "/>
<polyline clip-path="url(#clip230)" style="stroke:#000000; stroke-linecap:round; stroke-linejoin:round; stroke-width:4; stroke-opacity:1; fill:none" points="1274.89,1486.45 1274.89,1467.55 "/>
<polyline clip-path="url(#clip230)" style="stroke:#000000; stroke-linecap:round; stroke-linejoin:round; stroke-width:4; stroke-opacity:1; fill:none" points="1635.47,1486.45 1635.47,1467.55 "/>
<polyline clip-path="url(#clip230)" style="stroke:#000000; stroke-linecap:round; stroke-linejoin:round; stroke-width:4; stroke-opacity:1; fill:none" points="1996.05,1486.45 1996.05,1467.55 "/>
<path clip-path="url(#clip230)" d="M500.271 1532.02 L529.946 1532.02 L529.946 1535.95 L500.271 1535.95 L500.271 1532.02 Z" fill="#000000" fill-rule="nonzero" fill-opacity="1" /><path clip-path="url(#clip230)" d="M540.849 1544.91 L548.488 1544.91 L548.488 1518.55 L540.178 1520.21 L540.178 1515.95 L548.442 1514.29 L553.118 1514.29 L553.118 1544.91 L560.756 1544.91 L560.756 1548.85 L540.849 1548.85 L540.849 1544.91 Z" fill="#000000" fill-rule="nonzero" fill-opacity="1" /><path clip-path="url(#clip230)" d="M570.201 1542.97 L575.085 1542.97 L575.085 1548.85 L570.201 1548.85 L570.201 1542.97 Z" fill="#000000" fill-rule="nonzero" fill-opacity="1" /><path clip-path="url(#clip230)" d="M595.27 1517.37 Q591.659 1517.37 589.83 1520.93 Q588.025 1524.47 588.025 1531.6 Q588.025 1538.71 589.83 1542.27 Q591.659 1545.82 595.27 1545.82 Q598.904 1545.82 600.71 1542.27 Q602.539 1538.71 602.539 1531.6 Q602.539 1524.47 600.71 1520.93 Q598.904 1517.37 595.27 1517.37 M595.27 1513.66 Q601.08 1513.66 604.136 1518.27 Q607.214 1522.85 607.214 1531.6 Q607.214 1540.33 604.136 1544.94 Q601.08 1549.52 595.27 1549.52 Q589.46 1549.52 586.381 1544.94 Q583.326 1540.33 583.326 1531.6 Q583.326 1522.85 586.381 1518.27 Q589.46 1513.66 595.27 1513.66 Z" fill="#000000" fill-rule="nonzero" fill-opacity="1" /><path clip-path="url(#clip230)" d="M861.344 1532.02 L891.02 1532.02 L891.02 1535.95 L861.344 1535.95 L861.344 1532.02 Z" fill="#000000" fill-rule="nonzero" fill-opacity="1" /><path clip-path="url(#clip230)" d="M911.112 1517.37 Q907.501 1517.37 905.672 1520.93 Q903.867 1524.47 903.867 1531.6 Q903.867 1538.71 905.672 1542.27 Q907.501 1545.82 911.112 1545.82 Q914.747 1545.82 916.552 1542.27 Q918.381 1538.71 918.381 1531.6 Q918.381 1524.47 916.552 1520.93 Q914.747 1517.37 911.112 1517.37 M911.112 1513.66 Q916.922 1513.66 919.978 1518.27 Q923.057 1522.85 923.057 1531.6 Q923.057 1540.33 919.978 1544.94 Q916.922 1549.52 911.112 1549.52 Q905.302 1549.52 902.223 1544.94 Q899.168 1540.33 899.168 1531.6 Q899.168 1522.85 902.223 1518.27 Q905.302 1513.66 911.112 1513.66 Z" fill="#000000" fill-rule="nonzero" fill-opacity="1" /><path clip-path="url(#clip230)" d="M931.274 1542.97 L936.158 1542.97 L936.158 1548.85 L931.274 1548.85 L931.274 1542.97 Z" fill="#000000" fill-rule="nonzero" fill-opacity="1" /><path clip-path="url(#clip230)" d="M946.39 1514.29 L964.746 1514.29 L964.746 1518.22 L950.672 1518.22 L950.672 1526.7 Q951.691 1526.35 952.709 1526.19 Q953.728 1526 954.746 1526 Q960.533 1526 963.913 1529.17 Q967.293 1532.34 967.293 1537.76 Q967.293 1543.34 963.82 1546.44 Q960.348 1549.52 954.029 1549.52 Q951.853 1549.52 949.584 1549.15 Q947.339 1548.78 944.932 1548.04 L944.932 1543.34 Q947.015 1544.47 949.237 1545.03 Q951.459 1545.58 953.936 1545.58 Q957.941 1545.58 960.279 1543.48 Q962.617 1541.37 962.617 1537.76 Q962.617 1534.15 960.279 1532.04 Q957.941 1529.94 953.936 1529.94 Q952.061 1529.94 950.186 1530.35 Q948.334 1530.77 946.39 1531.65 L946.39 1514.29 Z" fill="#000000" fill-rule="nonzero" fill-opacity="1" /><path clip-path="url(#clip230)" d="M1252.28 1517.37 Q1248.67 1517.37 1246.84 1520.93 Q1245.03 1524.47 1245.03 1531.6 Q1245.03 1538.71 1246.84 1542.27 Q1248.67 1545.82 1252.28 1545.82 Q1255.91 1545.82 1257.72 1542.27 Q1259.55 1538.71 1259.55 1531.6 Q1259.55 1524.47 1257.72 1520.93 Q1255.91 1517.37 1252.28 1517.37 M1252.28 1513.66 Q1258.09 1513.66 1261.14 1518.27 Q1264.22 1522.85 1264.22 1531.6 Q1264.22 1540.33 1261.14 1544.94 Q1258.09 1549.52 1252.28 1549.52 Q1246.47 1549.52 1243.39 1544.94 Q1240.33 1540.33 1240.33 1531.6 Q1240.33 1522.85 1243.39 1518.27 Q1246.47 1513.66 1252.28 1513.66 Z" fill="#000000" fill-rule="nonzero" fill-opacity="1" /><path clip-path="url(#clip230)" d="M1272.44 1542.97 L1277.32 1542.97 L1277.32 1548.85 L1272.44 1548.85 L1272.44 1542.97 Z" fill="#000000" fill-rule="nonzero" fill-opacity="1" /><path clip-path="url(#clip230)" d="M1297.51 1517.37 Q1293.9 1517.37 1292.07 1520.93 Q1290.26 1524.47 1290.26 1531.6 Q1290.26 1538.71 1292.07 1542.27 Q1293.9 1545.82 1297.51 1545.82 Q1301.14 1545.82 1302.95 1542.27 Q1304.78 1538.71 1304.78 1531.6 Q1304.78 1524.47 1302.95 1520.93 Q1301.14 1517.37 1297.51 1517.37 M1297.51 1513.66 Q1303.32 1513.66 1306.38 1518.27 Q1309.45 1522.85 1309.45 1531.6 Q1309.45 1540.33 1306.38 1544.94 Q1303.32 1549.52 1297.51 1549.52 Q1291.7 1549.52 1288.62 1544.94 Q1285.57 1540.33 1285.57 1531.6 Q1285.57 1522.85 1288.62 1518.27 Q1291.7 1513.66 1297.51 1513.66 Z" fill="#000000" fill-rule="nonzero" fill-opacity="1" /><path clip-path="url(#clip230)" d="M1613.35 1517.37 Q1609.74 1517.37 1607.91 1520.93 Q1606.11 1524.47 1606.11 1531.6 Q1606.11 1538.71 1607.91 1542.27 Q1609.74 1545.82 1613.35 1545.82 Q1616.99 1545.82 1618.79 1542.27 Q1620.62 1538.71 1620.62 1531.6 Q1620.62 1524.47 1618.79 1520.93 Q1616.99 1517.37 1613.35 1517.37 M1613.35 1513.66 Q1619.16 1513.66 1622.22 1518.27 Q1625.3 1522.85 1625.3 1531.6 Q1625.3 1540.33 1622.22 1544.94 Q1619.16 1549.52 1613.35 1549.52 Q1607.54 1549.52 1604.46 1544.94 Q1601.41 1540.33 1601.41 1531.6 Q1601.41 1522.85 1604.46 1518.27 Q1607.54 1513.66 1613.35 1513.66 Z" fill="#000000" fill-rule="nonzero" fill-opacity="1" /><path clip-path="url(#clip230)" d="M1633.51 1542.97 L1638.4 1542.97 L1638.4 1548.85 L1633.51 1548.85 L1633.51 1542.97 Z" fill="#000000" fill-rule="nonzero" fill-opacity="1" /><path clip-path="url(#clip230)" d="M1648.63 1514.29 L1666.99 1514.29 L1666.99 1518.22 L1652.91 1518.22 L1652.91 1526.7 Q1653.93 1526.35 1654.95 1526.19 Q1655.97 1526 1656.99 1526 Q1662.77 1526 1666.15 1529.17 Q1669.53 1532.34 1669.53 1537.76 Q1669.53 1543.34 1666.06 1546.44 Q1662.59 1549.52 1656.27 1549.52 Q1654.09 1549.52 1651.82 1549.15 Q1649.58 1548.78 1647.17 1548.04 L1647.17 1543.34 Q1649.25 1544.47 1651.48 1545.03 Q1653.7 1545.58 1656.18 1545.58 Q1660.18 1545.58 1662.52 1543.48 Q1664.86 1541.37 1664.86 1537.76 Q1664.86 1534.15 1662.52 1532.04 Q1660.18 1529.94 1656.18 1529.94 Q1654.3 1529.94 1652.43 1530.35 Q1650.57 1530.77 1648.63 1531.65 L1648.63 1514.29 Z" fill="#000000" fill-rule="nonzero" fill-opacity="1" /><path clip-path="url(#clip230)" d="M1963.2 1544.91 L1970.84 1544.91 L1970.84 1518.55 L1962.53 1520.21 L1962.53 1515.95 L1970.79 1514.29 L1975.47 1514.29 L1975.47 1544.91 L1983.11 1544.91 L1983.11 1548.85 L1963.2 1548.85 L1963.2 1544.91 Z" fill="#000000" fill-rule="nonzero" fill-opacity="1" /><path clip-path="url(#clip230)" d="M1992.55 1542.97 L1997.43 1542.97 L1997.43 1548.85 L1992.55 1548.85 L1992.55 1542.97 Z" fill="#000000" fill-rule="nonzero" fill-opacity="1" /><path clip-path="url(#clip230)" d="M2017.62 1517.37 Q2014.01 1517.37 2012.18 1520.93 Q2010.37 1524.47 2010.37 1531.6 Q2010.37 1538.71 2012.18 1542.27 Q2014.01 1545.82 2017.62 1545.82 Q2021.25 1545.82 2023.06 1542.27 Q2024.89 1538.71 2024.89 1531.6 Q2024.89 1524.47 2023.06 1520.93 Q2021.25 1517.37 2017.62 1517.37 M2017.62 1513.66 Q2023.43 1513.66 2026.49 1518.27 Q2029.56 1522.85 2029.56 1531.6 Q2029.56 1540.33 2026.49 1544.94 Q2023.43 1549.52 2017.62 1549.52 Q2011.81 1549.52 2008.73 1544.94 Q2005.68 1540.33 2005.68 1531.6 Q2005.68 1522.85 2008.73 1518.27 Q2011.81 1513.66 2017.62 1513.66 Z" fill="#000000" fill-rule="nonzero" fill-opacity="1" /><polyline clip-path="url(#clip230)" style="stroke:#000000; stroke-linecap:round; stroke-linejoin:round; stroke-width:4; stroke-opacity:1; fill:none" points="193.936,1486.45 193.936,47.2441 "/>
<polyline clip-path="url(#clip230)" style="stroke:#000000; stroke-linecap:round; stroke-linejoin:round; stroke-width:4; stroke-opacity:1; fill:none" points="193.936,1247.08 212.834,1247.08 "/>
<polyline clip-path="url(#clip230)" style="stroke:#000000; stroke-linecap:round; stroke-linejoin:round; stroke-width:4; stroke-opacity:1; fill:none" points="193.936,1007 212.834,1007 "/>
<polyline clip-path="url(#clip230)" style="stroke:#000000; stroke-linecap:round; stroke-linejoin:round; stroke-width:4; stroke-opacity:1; fill:none" points="193.936,766.925 212.834,766.925 "/>
<polyline clip-path="url(#clip230)" style="stroke:#000000; stroke-linecap:round; stroke-linejoin:round; stroke-width:4; stroke-opacity:1; fill:none" points="193.936,526.849 212.834,526.849 "/>
<polyline clip-path="url(#clip230)" style="stroke:#000000; stroke-linecap:round; stroke-linejoin:round; stroke-width:4; stroke-opacity:1; fill:none" points="193.936,286.774 212.834,286.774 "/>
<path clip-path="url(#clip230)" d="M50.9921 1247.53 L80.6679 1247.53 L80.6679 1251.46 L50.9921 1251.46 L50.9921 1247.53 Z" fill="#000000" fill-rule="nonzero" fill-opacity="1" /><path clip-path="url(#clip230)" d="M91.5706 1260.42 L99.2095 1260.42 L99.2095 1234.05 L90.8993 1235.72 L90.8993 1231.46 L99.1632 1229.8 L103.839 1229.8 L103.839 1260.42 L111.478 1260.42 L111.478 1264.36 L91.5706 1264.36 L91.5706 1260.42 Z" fill="#000000" fill-rule="nonzero" fill-opacity="1" /><path clip-path="url(#clip230)" d="M120.922 1258.48 L125.807 1258.48 L125.807 1264.36 L120.922 1264.36 L120.922 1258.48 Z" fill="#000000" fill-rule="nonzero" fill-opacity="1" /><path clip-path="url(#clip230)" d="M145.992 1232.87 Q142.381 1232.87 140.552 1236.44 Q138.746 1239.98 138.746 1247.11 Q138.746 1254.22 140.552 1257.78 Q142.381 1261.32 145.992 1261.32 Q149.626 1261.32 151.431 1257.78 Q153.26 1254.22 153.26 1247.11 Q153.26 1239.98 151.431 1236.44 Q149.626 1232.87 145.992 1232.87 M145.992 1229.17 Q151.802 1229.17 154.857 1233.78 Q157.936 1238.36 157.936 1247.11 Q157.936 1255.84 154.857 1260.44 Q151.802 1265.03 145.992 1265.03 Q140.181 1265.03 137.103 1260.44 Q134.047 1255.84 134.047 1247.11 Q134.047 1238.36 137.103 1233.78 Q140.181 1229.17 145.992 1229.17 Z" fill="#000000" fill-rule="nonzero" fill-opacity="1" /><path clip-path="url(#clip230)" d="M51.9875 1007.45 L81.6633 1007.45 L81.6633 1011.39 L51.9875 1011.39 L51.9875 1007.45 Z" fill="#000000" fill-rule="nonzero" fill-opacity="1" /><path clip-path="url(#clip230)" d="M101.756 992.799 Q98.1447 992.799 96.316 996.364 Q94.5104 999.905 94.5104 1007.03 Q94.5104 1014.14 96.316 1017.71 Q98.1447 1021.25 101.756 1021.25 Q105.39 1021.25 107.196 1017.71 Q109.024 1014.14 109.024 1007.03 Q109.024 999.905 107.196 996.364 Q105.39 992.799 101.756 992.799 M101.756 989.095 Q107.566 989.095 110.621 993.702 Q113.7 998.285 113.7 1007.03 Q113.7 1015.76 110.621 1020.37 Q107.566 1024.95 101.756 1024.95 Q95.9456 1024.95 92.8669 1020.37 Q89.8114 1015.76 89.8114 1007.03 Q89.8114 998.285 92.8669 993.702 Q95.9456 989.095 101.756 989.095 Z" fill="#000000" fill-rule="nonzero" fill-opacity="1" /><path clip-path="url(#clip230)" d="M121.918 1018.4 L126.802 1018.4 L126.802 1024.28 L121.918 1024.28 L121.918 1018.4 Z" fill="#000000" fill-rule="nonzero" fill-opacity="1" /><path clip-path="url(#clip230)" d="M137.033 989.72 L155.39 989.72 L155.39 993.655 L141.316 993.655 L141.316 1002.13 Q142.334 1001.78 143.353 1001.62 Q144.371 1001.43 145.39 1001.43 Q151.177 1001.43 154.556 1004.6 Q157.936 1007.78 157.936 1013.19 Q157.936 1018.77 154.464 1021.87 Q150.992 1024.95 144.672 1024.95 Q142.496 1024.95 140.228 1024.58 Q137.982 1024.21 135.575 1023.47 L135.575 1018.77 Q137.658 1019.91 139.881 1020.46 Q142.103 1021.02 144.58 1021.02 Q148.584 1021.02 150.922 1018.91 Q153.26 1016.8 153.26 1013.19 Q153.26 1009.58 150.922 1007.47 Q148.584 1005.37 144.58 1005.37 Q142.705 1005.37 140.83 1005.78 Q138.978 1006.2 137.033 1007.08 L137.033 989.72 Z" fill="#000000" fill-rule="nonzero" fill-opacity="1" /><path clip-path="url(#clip230)" d="M100.76 752.723 Q97.1493 752.723 95.3206 756.288 Q93.515 759.83 93.515 766.959 Q93.515 774.066 95.3206 777.631 Q97.1493 781.172 100.76 781.172 Q104.395 781.172 106.2 777.631 Q108.029 774.066 108.029 766.959 Q108.029 759.83 106.2 756.288 Q104.395 752.723 100.76 752.723 M100.76 749.02 Q106.571 749.02 109.626 753.626 Q112.705 758.21 112.705 766.959 Q112.705 775.686 109.626 780.293 Q106.571 784.876 100.76 784.876 Q94.9502 784.876 91.8715 780.293 Q88.816 775.686 88.816 766.959 Q88.816 758.21 91.8715 753.626 Q94.9502 749.02 100.76 749.02 Z" fill="#000000" fill-rule="nonzero" fill-opacity="1" /><path clip-path="url(#clip230)" d="M120.922 778.325 L125.807 778.325 L125.807 784.205 L120.922 784.205 L120.922 778.325 Z" fill="#000000" fill-rule="nonzero" fill-opacity="1" /><path clip-path="url(#clip230)" d="M145.992 752.723 Q142.381 752.723 140.552 756.288 Q138.746 759.83 138.746 766.959 Q138.746 774.066 140.552 777.631 Q142.381 781.172 145.992 781.172 Q149.626 781.172 151.431 777.631 Q153.26 774.066 153.26 766.959 Q153.26 759.83 151.431 756.288 Q149.626 752.723 145.992 752.723 M145.992 749.02 Q151.802 749.02 154.857 753.626 Q157.936 758.21 157.936 766.959 Q157.936 775.686 154.857 780.293 Q151.802 784.876 145.992 784.876 Q140.181 784.876 137.103 780.293 Q134.047 775.686 134.047 766.959 Q134.047 758.21 137.103 753.626 Q140.181 749.02 145.992 749.02 Z" fill="#000000" fill-rule="nonzero" fill-opacity="1" /><path clip-path="url(#clip230)" d="M101.756 512.648 Q98.1447 512.648 96.316 516.213 Q94.5104 519.754 94.5104 526.884 Q94.5104 533.99 96.316 537.555 Q98.1447 541.097 101.756 541.097 Q105.39 541.097 107.196 537.555 Q109.024 533.99 109.024 526.884 Q109.024 519.754 107.196 516.213 Q105.39 512.648 101.756 512.648 M101.756 508.944 Q107.566 508.944 110.621 513.551 Q113.7 518.134 113.7 526.884 Q113.7 535.611 110.621 540.217 Q107.566 544.801 101.756 544.801 Q95.9456 544.801 92.8669 540.217 Q89.8114 535.611 89.8114 526.884 Q89.8114 518.134 92.8669 513.551 Q95.9456 508.944 101.756 508.944 Z" fill="#000000" fill-rule="nonzero" fill-opacity="1" /><path clip-path="url(#clip230)" d="M121.918 538.25 L126.802 538.25 L126.802 544.129 L121.918 544.129 L121.918 538.25 Z" fill="#000000" fill-rule="nonzero" fill-opacity="1" /><path clip-path="url(#clip230)" d="M137.033 509.569 L155.39 509.569 L155.39 513.504 L141.316 513.504 L141.316 521.977 Q142.334 521.629 143.353 521.467 Q144.371 521.282 145.39 521.282 Q151.177 521.282 154.556 524.453 Q157.936 527.625 157.936 533.041 Q157.936 538.62 154.464 541.722 Q150.992 544.801 144.672 544.801 Q142.496 544.801 140.228 544.43 Q137.982 544.06 135.575 543.319 L135.575 538.62 Q137.658 539.754 139.881 540.31 Q142.103 540.865 144.58 540.865 Q148.584 540.865 150.922 538.759 Q153.26 536.652 153.26 533.041 Q153.26 529.43 150.922 527.324 Q148.584 525.217 144.58 525.217 Q142.705 525.217 140.83 525.634 Q138.978 526.051 137.033 526.93 L137.033 509.569 Z" fill="#000000" fill-rule="nonzero" fill-opacity="1" /><path clip-path="url(#clip230)" d="M91.5706 300.119 L99.2095 300.119 L99.2095 273.753 L90.8993 275.42 L90.8993 271.16 L99.1632 269.494 L103.839 269.494 L103.839 300.119 L111.478 300.119 L111.478 304.054 L91.5706 304.054 L91.5706 300.119 Z" fill="#000000" fill-rule="nonzero" fill-opacity="1" /><path clip-path="url(#clip230)" d="M120.922 298.174 L125.807 298.174 L125.807 304.054 L120.922 304.054 L120.922 298.174 Z" fill="#000000" fill-rule="nonzero" fill-opacity="1" /><path clip-path="url(#clip230)" d="M145.992 272.573 Q142.381 272.573 140.552 276.137 Q138.746 279.679 138.746 286.809 Q138.746 293.915 140.552 297.48 Q142.381 301.021 145.992 301.021 Q149.626 301.021 151.431 297.48 Q153.26 293.915 153.26 286.809 Q153.26 279.679 151.431 276.137 Q149.626 272.573 145.992 272.573 M145.992 268.869 Q151.802 268.869 154.857 273.475 Q157.936 278.059 157.936 286.809 Q157.936 295.535 154.857 300.142 Q151.802 304.725 145.992 304.725 Q140.181 304.725 137.103 300.142 Q134.047 295.535 134.047 286.809 Q134.047 278.059 137.103 273.475 Q140.181 268.869 145.992 268.869 Z" fill="#000000" fill-rule="nonzero" fill-opacity="1" /><polyline clip-path="url(#clip231)" style="stroke:#009af9; stroke-linecap:round; stroke-linejoin:round; stroke-width:4; stroke-opacity:1; fill:none" points="1996.05,286.774 2121.03,387.838 2289.42,697.556 2157.71,1106.91 1639.76,1401.02 828.43,1377.44 304.676,976.202 466.862,352.619 1291.26,87.9763 2167.04,437.908 2144.42,1121.78 1247.5,1445.72 337.158,1033.89 514.609,314.327 1565.58,116.055 2287.62,686.711 1762.13,1363.45 627.397,1291.55 294.462,579.938 1183.8,90.6027 2194.39,473.176 2011.49,1236.57 897.926,1397.87 255.107,758.679 941.963,125.089 2067.25,339.404 2157.68,1106.95 1130.8,1439.15 274.617,899.36 748.319,185.401 1914,237.759 2251.92,961.649 1331.11,1444.93 334.862,1030.29 585.721,266.387 1727.82,158.527 2290.5,828.911 1522.87,1425.58 426.606,1143.87 450.261,367.383 1515.58,107.069 2289.61,698.809 1714.54,1379.63 556.988,1249.23 338.32,498.158 1322.23,88.6207 2251.64,571.579 1879.1,1313.96 716.365,1335.08 273.642,637.796 1128.04,94.9651 2174.74,447.335 2031.68,1222.12 919.732,1403.46 255.035,765.306 937.227,126.187 2068.08,340.089 2155.09,1109.91 1122.42,1438.33 272.583,892.359 759.536,180.963 1926.02,244.29 2246.37,973.599 1313.48,1445.47 327.538,1018.38 600.916,257.297 1748.5,165.547 2288.46,842.253 1502.59,1428.82 415.21,1132.25 463.843,355.243 1540.54,111.328 2291.66,714.029 1692.29,1386.49 539.233,1237.22 349.963,480.842 1346.67,89.5723 2258.64,587.824 1858.52,1323.78 693.397,1324.77 278.197,623.02 1150.35,92.9708 2184.65,460.027 2016.29,1233.21 896.652,1397.53 255.307,751.163 957.98,121.505 1531.37,109.712 "/>
<path clip-path="url(#clip230)" d="M1826.6 1438.47 L2280.8 1438.47 L2280.8 1334.79 L1826.6 1334.79  Z" fill="#ffffff" fill-rule="evenodd" fill-opacity="1"/>
<polyline clip-path="url(#clip230)" style="stroke:#000000; stroke-linecap:round; stroke-linejoin:round; stroke-width:4; stroke-opacity:1; fill:none" points="1826.6,1438.47 2280.8,1438.47 2280.8,1334.79 1826.6,1334.79 1826.6,1438.47 "/>
<polyline clip-path="url(#clip230)" style="stroke:#009af9; stroke-linecap:round; stroke-linejoin:round; stroke-width:4; stroke-opacity:1; fill:none" points="1850.59,1386.63 1994.51,1386.63 "/>
<path clip-path="url(#clip230)" d="M2029.12 1367.94 Q2026.02 1373.27 2024.52 1378.47 Q2023.01 1383.68 2023.01 1389.03 Q2023.01 1394.38 2024.52 1399.63 Q2026.05 1404.86 2029.12 1410.16 L2025.42 1410.16 Q2021.95 1404.72 2020.21 1399.47 Q2018.5 1394.22 2018.5 1389.03 Q2018.5 1383.87 2020.21 1378.64 Q2021.93 1373.41 2025.42 1367.94 L2029.12 1367.94 Z" fill="#000000" fill-rule="nonzero" fill-opacity="1" /><path clip-path="url(#clip230)" d="M2036.95 1393.68 L2036.95 1377.99 L2041.21 1377.99 L2041.21 1393.52 Q2041.21 1397.2 2042.64 1399.05 Q2044.08 1400.88 2046.95 1400.88 Q2050.4 1400.88 2052.39 1398.68 Q2054.4 1396.48 2054.4 1392.69 L2054.4 1377.99 L2058.66 1377.99 L2058.66 1403.91 L2054.4 1403.91 L2054.4 1399.93 Q2052.85 1402.29 2050.79 1403.45 Q2048.75 1404.59 2046.05 1404.59 Q2041.58 1404.59 2039.26 1401.81 Q2036.95 1399.03 2036.95 1393.68 M2047.67 1377.36 L2047.67 1377.36 Z" fill="#000000" fill-rule="nonzero" fill-opacity="1" /><path clip-path="url(#clip230)" d="M2067.04 1367.9 L2076.86 1367.9 L2076.86 1371.21 L2071.3 1371.21 L2071.3 1406.85 L2076.86 1406.85 L2076.86 1410.16 L2067.04 1410.16 L2067.04 1367.9 Z" fill="#000000" fill-rule="nonzero" fill-opacity="1" /><path clip-path="url(#clip230)" d="M2087.34 1399.98 L2094.98 1399.98 L2094.98 1373.61 L2086.67 1375.28 L2086.67 1371.02 L2094.93 1369.35 L2099.61 1369.35 L2099.61 1399.98 L2107.25 1399.98 L2107.25 1403.91 L2087.34 1403.91 L2087.34 1399.98 Z" fill="#000000" fill-rule="nonzero" fill-opacity="1" /><path clip-path="url(#clip230)" d="M2126.05 1367.9 L2126.05 1410.16 L2116.23 1410.16 L2116.23 1406.85 L2121.76 1406.85 L2121.76 1371.21 L2116.23 1371.21 L2116.23 1367.9 L2126.05 1367.9 Z" fill="#000000" fill-rule="nonzero" fill-opacity="1" /><path clip-path="url(#clip230)" d="M2135.67 1398.03 L2140.56 1398.03 L2140.56 1402.02 L2136.76 1409.42 L2133.78 1409.42 L2135.67 1402.02 L2135.67 1398.03 Z" fill="#000000" fill-rule="nonzero" fill-opacity="1" /><path clip-path="url(#clip230)" d="M2149.22 1393.68 L2149.22 1377.99 L2153.48 1377.99 L2153.48 1393.52 Q2153.48 1397.2 2154.91 1399.05 Q2156.35 1400.88 2159.22 1400.88 Q2162.67 1400.88 2164.66 1398.68 Q2166.67 1396.48 2166.67 1392.69 L2166.67 1377.99 L2170.93 1377.99 L2170.93 1403.91 L2166.67 1403.91 L2166.67 1399.93 Q2165.12 1402.29 2163.06 1403.45 Q2161.02 1404.59 2158.31 1404.59 Q2153.85 1404.59 2151.53 1401.81 Q2149.22 1399.03 2149.22 1393.68 M2159.93 1377.36 L2159.93 1377.36 Z" fill="#000000" fill-rule="nonzero" fill-opacity="1" /><path clip-path="url(#clip230)" d="M2179.31 1367.9 L2189.12 1367.9 L2189.12 1371.21 L2183.57 1371.21 L2183.57 1406.85 L2189.12 1406.85 L2189.12 1410.16 L2179.31 1410.16 L2179.31 1367.9 Z" fill="#000000" fill-rule="nonzero" fill-opacity="1" /><path clip-path="url(#clip230)" d="M2202.83 1399.98 L2219.15 1399.98 L2219.15 1403.91 L2197.2 1403.91 L2197.2 1399.98 Q2199.86 1397.22 2204.45 1392.6 Q2209.05 1387.94 2210.23 1386.6 Q2212.48 1384.08 2213.36 1382.34 Q2214.26 1380.58 2214.26 1378.89 Q2214.26 1376.14 2212.32 1374.4 Q2210.4 1372.66 2207.29 1372.66 Q2205.1 1372.66 2202.64 1373.43 Q2200.21 1374.19 2197.43 1375.74 L2197.43 1371.02 Q2200.26 1369.89 2202.71 1369.31 Q2205.17 1368.73 2207.2 1368.73 Q2212.57 1368.73 2215.77 1371.41 Q2218.96 1374.1 2218.96 1378.59 Q2218.96 1380.72 2218.15 1382.64 Q2217.36 1384.54 2215.26 1387.13 Q2214.68 1387.8 2211.58 1391.02 Q2208.48 1394.22 2202.83 1399.98 Z" fill="#000000" fill-rule="nonzero" fill-opacity="1" /><path clip-path="url(#clip230)" d="M2238.31 1367.9 L2238.31 1410.16 L2228.5 1410.16 L2228.5 1406.85 L2234.03 1406.85 L2234.03 1371.21 L2228.5 1371.21 L2228.5 1367.9 L2238.31 1367.9 Z" fill="#000000" fill-rule="nonzero" fill-opacity="1" /><path clip-path="url(#clip230)" d="M2246.18 1367.94 L2249.89 1367.94 Q2253.36 1373.41 2255.07 1378.64 Q2256.81 1383.87 2256.81 1389.03 Q2256.81 1394.22 2255.07 1399.47 Q2253.36 1404.72 2249.89 1410.16 L2246.18 1410.16 Q2249.26 1404.86 2250.77 1399.63 Q2252.29 1394.38 2252.29 1389.03 Q2252.29 1383.68 2250.77 1378.47 Q2249.26 1373.27 2246.18 1367.94 Z" fill="#000000" fill-rule="nonzero" fill-opacity="1" /></svg>
