<?xml version="1.0" encoding="utf-8"?>
<svg xmlns="http://www.w3.org/2000/svg" xmlns:xlink="http://www.w3.org/1999/xlink" width="600" height="400" viewBox="0 0 2400 1600">
<defs>
  <clipPath id="clip680">
    <rect x="0" y="0" width="2400" height="1600"/>
  </clipPath>
</defs>
<path clip-path="url(#clip680)" d="M0 1600 L2400 1600 L2400 0 L0 0  Z" fill="#ffffff" fill-rule="evenodd" fill-opacity="1"/>
<defs>
  <clipPath id="clip681">
    <rect x="480" y="0" width="1681" height="1600"/>
  </clipPath>
</defs>
<path clip-path="url(#clip680)" d="M249.542 1423.18 L2352.76 1423.18 L2352.76 47.2441 L249.542 47.2441  Z" fill="#ffffff" fill-rule="evenodd" fill-opacity="1"/>
<defs>
  <clipPath id="clip682">
    <rect x="249" y="47" width="2104" height="1377"/>
  </clipPath>
</defs>
<polyline clip-path="url(#clip682)" style="stroke:#000000; stroke-linecap:round; stroke-linejoin:round; stroke-width:2; stroke-opacity:0.1; fill:none" points="309.067,1423.18 309.067,47.2441 "/>
<polyline clip-path="url(#clip682)" style="stroke:#000000; stroke-linecap:round; stroke-linejoin:round; stroke-width:2; stroke-opacity:0.1; fill:none" points="881.485,1423.18 881.485,47.2441 "/>
<polyline clip-path="url(#clip682)" style="stroke:#000000; stroke-linecap:round; stroke-linejoin:round; stroke-width:2; stroke-opacity:0.1; fill:none" points="1453.9,1423.18 1453.9,47.2441 "/>
<polyline clip-path="url(#clip682)" style="stroke:#000000; stroke-linecap:round; stroke-linejoin:round; stroke-width:2; stroke-opacity:0.1; fill:none" points="2026.32,1423.18 2026.32,47.2441 "/>
<polyline clip-path="url(#clip680)" style="stroke:#000000; stroke-linecap:round; stroke-linejoin:round; stroke-width:4; stroke-opacity:1; fill:none" points="249.542,1423.18 2352.76,1423.18 "/>
<polyline clip-path="url(#clip680)" style="stroke:#000000; stroke-linecap:round; stroke-linejoin:round; stroke-width:4; stroke-opacity:1; fill:none" points="309.067,1423.18 309.067,1404.28 "/>
<polyline clip-path="url(#clip680)" style="stroke:#000000; stroke-linecap:round; stroke-linejoin:round; stroke-width:4; stroke-opacity:1; fill:none" points="881.485,1423.18 881.485,1404.28 "/>
<polyline clip-path="url(#clip680)" style="stroke:#000000; stroke-linecap:round; stroke-linejoin:round; stroke-width:4; stroke-opacity:1; fill:none" points="1453.9,1423.18 1453.9,1404.28 "/>
<polyline clip-path="url(#clip680)" style="stroke:#000000; stroke-linecap:round; stroke-linejoin:round; stroke-width:4; stroke-opacity:1; fill:none" points="2026.32,1423.18 2026.32,1404.28 "/>
<path clip-path="url(#clip680)" d="M261.139 1481.64 L268.778 1481.64 L268.778 1455.28 L260.468 1456.95 L260.468 1452.69 L268.732 1451.02 L273.407 1451.02 L273.407 1481.64 L281.046 1481.64 L281.046 1485.58 L261.139 1485.58 L261.139 1481.64 Z" fill="#000000" fill-rule="nonzero" fill-opacity="1" /><path clip-path="url(#clip680)" d="M290.491 1479.7 L295.375 1479.7 L295.375 1485.58 L290.491 1485.58 L290.491 1479.7 Z" fill="#000000" fill-rule="nonzero" fill-opacity="1" /><path clip-path="url(#clip680)" d="M315.56 1454.1 Q311.949 1454.1 310.12 1457.66 Q308.315 1461.2 308.315 1468.33 Q308.315 1475.44 310.12 1479.01 Q311.949 1482.55 315.56 1482.55 Q319.194 1482.55 321 1479.01 Q322.828 1475.44 322.828 1468.33 Q322.828 1461.2 321 1457.66 Q319.194 1454.1 315.56 1454.1 M315.56 1450.39 Q321.37 1450.39 324.426 1455 Q327.504 1459.58 327.504 1468.33 Q327.504 1477.06 324.426 1481.67 Q321.37 1486.25 315.56 1486.25 Q309.75 1486.25 306.671 1481.67 Q303.616 1477.06 303.616 1468.33 Q303.616 1459.58 306.671 1455 Q309.75 1450.39 315.56 1450.39 Z" fill="#000000" fill-rule="nonzero" fill-opacity="1" /><path clip-path="url(#clip680)" d="M345.722 1454.1 Q342.111 1454.1 340.282 1457.66 Q338.477 1461.2 338.477 1468.33 Q338.477 1475.44 340.282 1479.01 Q342.111 1482.55 345.722 1482.55 Q349.356 1482.55 351.162 1479.01 Q352.99 1475.44 352.99 1468.33 Q352.99 1461.2 351.162 1457.66 Q349.356 1454.1 345.722 1454.1 M345.722 1450.39 Q351.532 1450.39 354.588 1455 Q357.666 1459.58 357.666 1468.33 Q357.666 1477.06 354.588 1481.67 Q351.532 1486.25 345.722 1486.25 Q339.912 1486.25 336.833 1481.67 Q333.777 1477.06 333.777 1468.33 Q333.777 1459.58 336.833 1455 Q339.912 1450.39 345.722 1450.39 Z" fill="#000000" fill-rule="nonzero" fill-opacity="1" /><path clip-path="url(#clip680)" d="M834.055 1481.64 L841.694 1481.64 L841.694 1455.28 L833.384 1456.95 L833.384 1452.69 L841.648 1451.02 L846.323 1451.02 L846.323 1481.64 L853.962 1481.64 L853.962 1485.58 L834.055 1485.58 L834.055 1481.64 Z" fill="#000000" fill-rule="nonzero" fill-opacity="1" /><path clip-path="url(#clip680)" d="M863.407 1479.7 L868.291 1479.7 L868.291 1485.58 L863.407 1485.58 L863.407 1479.7 Z" fill="#000000" fill-rule="nonzero" fill-opacity="1" /><path clip-path="url(#clip680)" d="M888.476 1454.1 Q884.865 1454.1 883.036 1457.66 Q881.231 1461.2 881.231 1468.33 Q881.231 1475.44 883.036 1479.01 Q884.865 1482.55 888.476 1482.55 Q892.11 1482.55 893.916 1479.01 Q895.744 1475.44 895.744 1468.33 Q895.744 1461.2 893.916 1457.66 Q892.11 1454.1 888.476 1454.1 M888.476 1450.39 Q894.286 1450.39 897.342 1455 Q900.42 1459.58 900.42 1468.33 Q900.42 1477.06 897.342 1481.67 Q894.286 1486.25 888.476 1486.25 Q882.666 1486.25 879.587 1481.67 Q876.532 1477.06 876.532 1468.33 Q876.532 1459.58 879.587 1455 Q882.666 1450.39 888.476 1450.39 Z" fill="#000000" fill-rule="nonzero" fill-opacity="1" /><path clip-path="url(#clip680)" d="M908.684 1451.02 L927.041 1451.02 L927.041 1454.96 L912.967 1454.96 L912.967 1463.43 Q913.985 1463.08 915.004 1462.92 Q916.022 1462.73 917.041 1462.73 Q922.828 1462.73 926.207 1465.9 Q929.587 1469.08 929.587 1474.49 Q929.587 1480.07 926.115 1483.17 Q922.642 1486.25 916.323 1486.25 Q914.147 1486.25 911.879 1485.88 Q909.633 1485.51 907.226 1484.77 L907.226 1480.07 Q909.309 1481.2 911.531 1481.76 Q913.754 1482.32 916.23 1482.32 Q920.235 1482.32 922.573 1480.21 Q924.911 1478.1 924.911 1474.49 Q924.911 1470.88 922.573 1468.77 Q920.235 1466.67 916.23 1466.67 Q914.355 1466.67 912.481 1467.08 Q910.629 1467.5 908.684 1468.38 L908.684 1451.02 Z" fill="#000000" fill-rule="nonzero" fill-opacity="1" /><path clip-path="url(#clip680)" d="M1405.98 1481.64 L1413.61 1481.64 L1413.61 1455.28 L1405.3 1456.95 L1405.3 1452.69 L1413.57 1451.02 L1418.24 1451.02 L1418.24 1481.64 L1425.88 1481.64 L1425.88 1485.58 L1405.98 1485.58 L1405.98 1481.64 Z" fill="#000000" fill-rule="nonzero" fill-opacity="1" /><path clip-path="url(#clip680)" d="M1435.33 1479.7 L1440.21 1479.7 L1440.21 1485.58 L1435.33 1485.58 L1435.33 1479.7 Z" fill="#000000" fill-rule="nonzero" fill-opacity="1" /><path clip-path="url(#clip680)" d="M1451.21 1481.64 L1458.85 1481.64 L1458.85 1455.28 L1450.54 1456.95 L1450.54 1452.69 L1458.8 1451.02 L1463.48 1451.02 L1463.48 1481.64 L1471.11 1481.64 L1471.11 1485.58 L1451.21 1485.58 L1451.21 1481.64 Z" fill="#000000" fill-rule="nonzero" fill-opacity="1" /><path clip-path="url(#clip680)" d="M1490.56 1454.1 Q1486.95 1454.1 1485.12 1457.66 Q1483.31 1461.2 1483.31 1468.33 Q1483.31 1475.44 1485.12 1479.01 Q1486.95 1482.55 1490.56 1482.55 Q1494.19 1482.55 1496 1479.01 Q1497.83 1475.44 1497.83 1468.33 Q1497.83 1461.2 1496 1457.66 Q1494.19 1454.1 1490.56 1454.1 M1490.56 1450.39 Q1496.37 1450.39 1499.42 1455 Q1502.5 1459.58 1502.5 1468.33 Q1502.5 1477.06 1499.42 1481.67 Q1496.37 1486.25 1490.56 1486.25 Q1484.75 1486.25 1481.67 1481.67 Q1478.61 1477.06 1478.61 1468.33 Q1478.61 1459.58 1481.67 1455 Q1484.75 1450.39 1490.56 1450.39 Z" fill="#000000" fill-rule="nonzero" fill-opacity="1" /><path clip-path="url(#clip680)" d="M1978.89 1481.64 L1986.53 1481.64 L1986.53 1455.28 L1978.22 1456.95 L1978.22 1452.69 L1986.48 1451.02 L1991.16 1451.02 L1991.16 1481.64 L1998.8 1481.64 L1998.8 1485.58 L1978.89 1485.58 L1978.89 1481.64 Z" fill="#000000" fill-rule="nonzero" fill-opacity="1" /><path clip-path="url(#clip680)" d="M2008.24 1479.7 L2013.13 1479.7 L2013.13 1485.58 L2008.24 1485.58 L2008.24 1479.7 Z" fill="#000000" fill-rule="nonzero" fill-opacity="1" /><path clip-path="url(#clip680)" d="M2024.12 1481.64 L2031.76 1481.64 L2031.76 1455.28 L2023.45 1456.95 L2023.45 1452.69 L2031.72 1451.02 L2036.39 1451.02 L2036.39 1481.64 L2044.03 1481.64 L2044.03 1485.58 L2024.12 1485.58 L2024.12 1481.64 Z" fill="#000000" fill-rule="nonzero" fill-opacity="1" /><path clip-path="url(#clip680)" d="M2053.52 1451.02 L2071.88 1451.02 L2071.88 1454.96 L2057.8 1454.96 L2057.8 1463.43 Q2058.82 1463.08 2059.84 1462.92 Q2060.86 1462.73 2061.88 1462.73 Q2067.66 1462.73 2071.04 1465.9 Q2074.42 1469.08 2074.42 1474.49 Q2074.42 1480.07 2070.95 1483.17 Q2067.48 1486.25 2061.16 1486.25 Q2058.98 1486.25 2056.72 1485.88 Q2054.47 1485.51 2052.06 1484.77 L2052.06 1480.07 Q2054.15 1481.2 2056.37 1481.76 Q2058.59 1482.32 2061.07 1482.32 Q2065.07 1482.32 2067.41 1480.21 Q2069.75 1478.1 2069.75 1474.49 Q2069.75 1470.88 2067.41 1468.77 Q2065.07 1466.67 2061.07 1466.67 Q2059.19 1466.67 2057.32 1467.08 Q2055.47 1467.5 2053.52 1468.38 L2053.52 1451.02 Z" fill="#000000" fill-rule="nonzero" fill-opacity="1" /><path clip-path="url(#clip680)" d="M1239.89 1553.98 L1239.89 1532.4 L1245.75 1532.4 L1245.75 1553.75 Q1245.75 1558.81 1247.72 1561.36 Q1249.7 1563.87 1253.64 1563.87 Q1258.39 1563.87 1261.12 1560.85 Q1263.89 1557.83 1263.89 1552.61 L1263.89 1532.4 L1269.75 1532.4 L1269.75 1568.04 L1263.89 1568.04 L1263.89 1562.57 Q1261.76 1565.82 1258.93 1567.41 Q1256.13 1568.97 1252.4 1568.97 Q1246.26 1568.97 1243.08 1565.15 Q1239.89 1561.33 1239.89 1553.98 M1254.63 1531.54 L1254.63 1531.54 Z" fill="#000000" fill-rule="nonzero" fill-opacity="1" /><path clip-path="url(#clip680)" d="M1281.27 1518.52 L1294.77 1518.52 L1294.77 1523.07 L1287.13 1523.07 L1287.13 1572.09 L1294.77 1572.09 L1294.77 1576.64 L1281.27 1576.64 L1281.27 1518.52 Z" fill="#000000" fill-rule="nonzero" fill-opacity="1" /><path clip-path="url(#clip680)" d="M1309.19 1562.63 L1319.69 1562.63 L1319.69 1526.38 L1308.26 1528.67 L1308.26 1522.82 L1319.63 1520.52 L1326.05 1520.52 L1326.05 1562.63 L1336.56 1562.63 L1336.56 1568.04 L1309.19 1568.04 L1309.19 1562.63 Z" fill="#000000" fill-rule="nonzero" fill-opacity="1" /><path clip-path="url(#clip680)" d="M1362.4 1518.52 L1362.4 1576.64 L1348.91 1576.64 L1348.91 1572.09 L1356.51 1572.09 L1356.51 1523.07 L1348.91 1523.07 L1348.91 1518.52 L1362.4 1518.52 Z" fill="#000000" fill-rule="nonzero" fill-opacity="1" /><polyline clip-path="url(#clip682)" style="stroke:#000000; stroke-linecap:round; stroke-linejoin:round; stroke-width:2; stroke-opacity:0.1; fill:none" points="249.542,1319.58 2352.76,1319.58 "/>
<polyline clip-path="url(#clip682)" style="stroke:#000000; stroke-linecap:round; stroke-linejoin:round; stroke-width:2; stroke-opacity:0.1; fill:none" points="249.542,1011.23 2352.76,1011.23 "/>
<polyline clip-path="url(#clip682)" style="stroke:#000000; stroke-linecap:round; stroke-linejoin:round; stroke-width:2; stroke-opacity:0.1; fill:none" points="249.542,702.882 2352.76,702.882 "/>
<polyline clip-path="url(#clip682)" style="stroke:#000000; stroke-linecap:round; stroke-linejoin:round; stroke-width:2; stroke-opacity:0.1; fill:none" points="249.542,394.534 2352.76,394.534 "/>
<polyline clip-path="url(#clip682)" style="stroke:#000000; stroke-linecap:round; stroke-linejoin:round; stroke-width:2; stroke-opacity:0.1; fill:none" points="249.542,86.1857 2352.76,86.1857 "/>
<polyline clip-path="url(#clip680)" style="stroke:#000000; stroke-linecap:round; stroke-linejoin:round; stroke-width:4; stroke-opacity:1; fill:none" points="249.542,1423.18 249.542,47.2441 "/>
<polyline clip-path="url(#clip680)" style="stroke:#000000; stroke-linecap:round; stroke-linejoin:round; stroke-width:4; stroke-opacity:1; fill:none" points="249.542,1319.58 268.44,1319.58 "/>
<polyline clip-path="url(#clip680)" style="stroke:#000000; stroke-linecap:round; stroke-linejoin:round; stroke-width:4; stroke-opacity:1; fill:none" points="249.542,1011.23 268.44,1011.23 "/>
<polyline clip-path="url(#clip680)" style="stroke:#000000; stroke-linecap:round; stroke-linejoin:round; stroke-width:4; stroke-opacity:1; fill:none" points="249.542,702.882 268.44,702.882 "/>
<polyline clip-path="url(#clip680)" style="stroke:#000000; stroke-linecap:round; stroke-linejoin:round; stroke-width:4; stroke-opacity:1; fill:none" points="249.542,394.534 268.44,394.534 "/>
<polyline clip-path="url(#clip680)" style="stroke:#000000; stroke-linecap:round; stroke-linejoin:round; stroke-width:4; stroke-opacity:1; fill:none" points="249.542,86.1857 268.44,86.1857 "/>
<path clip-path="url(#clip680)" d="M126.205 1305.38 Q122.593 1305.38 120.765 1308.94 Q118.959 1312.48 118.959 1319.61 Q118.959 1326.72 120.765 1330.28 Q122.593 1333.83 126.205 1333.83 Q129.839 1333.83 131.644 1330.28 Q133.473 1326.72 133.473 1319.61 Q133.473 1312.48 131.644 1308.94 Q129.839 1305.38 126.205 1305.38 M126.205 1301.67 Q132.015 1301.67 135.07 1306.28 Q138.149 1310.86 138.149 1319.61 Q138.149 1328.34 135.07 1332.95 Q132.015 1337.53 126.205 1337.53 Q120.394 1337.53 117.316 1332.95 Q114.26 1328.34 114.26 1319.61 Q114.26 1310.86 117.316 1306.28 Q120.394 1301.67 126.205 1301.67 Z" fill="#000000" fill-rule="nonzero" fill-opacity="1" /><path clip-path="url(#clip680)" d="M146.366 1330.98 L151.251 1330.98 L151.251 1336.86 L146.366 1336.86 L146.366 1330.98 Z" fill="#000000" fill-rule="nonzero" fill-opacity="1" /><path clip-path="url(#clip680)" d="M171.436 1320.45 Q168.102 1320.45 166.181 1322.23 Q164.283 1324.01 164.283 1327.14 Q164.283 1330.26 166.181 1332.04 Q168.102 1333.83 171.436 1333.83 Q174.769 1333.83 176.69 1332.04 Q178.612 1330.24 178.612 1327.14 Q178.612 1324.01 176.69 1322.23 Q174.792 1320.45 171.436 1320.45 M166.76 1318.45 Q163.751 1317.71 162.061 1315.65 Q160.394 1313.59 160.394 1310.63 Q160.394 1306.49 163.334 1304.08 Q166.297 1301.67 171.436 1301.67 Q176.598 1301.67 179.538 1304.08 Q182.477 1306.49 182.477 1310.63 Q182.477 1313.59 180.788 1315.65 Q179.121 1317.71 176.135 1318.45 Q179.514 1319.24 181.389 1321.53 Q183.288 1323.83 183.288 1327.14 Q183.288 1332.16 180.209 1334.84 Q177.153 1337.53 171.436 1337.53 Q165.718 1337.53 162.64 1334.84 Q159.584 1332.16 159.584 1327.14 Q159.584 1323.83 161.482 1321.53 Q163.38 1319.24 166.76 1318.45 M165.047 1311.07 Q165.047 1313.76 166.714 1315.26 Q168.403 1316.77 171.436 1316.77 Q174.445 1316.77 176.135 1315.26 Q177.848 1313.76 177.848 1311.07 Q177.848 1308.39 176.135 1306.88 Q174.445 1305.38 171.436 1305.38 Q168.403 1305.38 166.714 1306.88 Q165.047 1308.39 165.047 1311.07 Z" fill="#000000" fill-rule="nonzero" fill-opacity="1" /><path clip-path="url(#clip680)" d="M201.598 1305.38 Q197.987 1305.38 196.158 1308.94 Q194.352 1312.48 194.352 1319.61 Q194.352 1326.72 196.158 1330.28 Q197.987 1333.83 201.598 1333.83 Q205.232 1333.83 207.037 1330.28 Q208.866 1326.72 208.866 1319.61 Q208.866 1312.48 207.037 1308.94 Q205.232 1305.38 201.598 1305.38 M201.598 1301.67 Q207.408 1301.67 210.463 1306.28 Q213.542 1310.86 213.542 1319.61 Q213.542 1328.34 210.463 1332.95 Q207.408 1337.53 201.598 1337.53 Q195.787 1337.53 192.709 1332.95 Q189.653 1328.34 189.653 1319.61 Q189.653 1310.86 192.709 1306.28 Q195.787 1301.67 201.598 1301.67 Z" fill="#000000" fill-rule="nonzero" fill-opacity="1" /><path clip-path="url(#clip680)" d="M127.2 997.028 Q123.589 997.028 121.76 1000.59 Q119.955 1004.13 119.955 1011.26 Q119.955 1018.37 121.76 1021.94 Q123.589 1025.48 127.2 1025.48 Q130.834 1025.48 132.64 1021.94 Q134.468 1018.37 134.468 1011.26 Q134.468 1004.13 132.64 1000.59 Q130.834 997.028 127.2 997.028 M127.2 993.325 Q133.01 993.325 136.066 997.931 Q139.144 1002.51 139.144 1011.26 Q139.144 1019.99 136.066 1024.6 Q133.01 1029.18 127.2 1029.18 Q121.39 1029.18 118.311 1024.6 Q115.256 1019.99 115.256 1011.26 Q115.256 1002.51 118.311 997.931 Q121.39 993.325 127.2 993.325 Z" fill="#000000" fill-rule="nonzero" fill-opacity="1" /><path clip-path="url(#clip680)" d="M147.362 1022.63 L152.246 1022.63 L152.246 1028.51 L147.362 1028.51 L147.362 1022.63 Z" fill="#000000" fill-rule="nonzero" fill-opacity="1" /><path clip-path="url(#clip680)" d="M172.431 1012.1 Q169.098 1012.1 167.177 1013.88 Q165.278 1015.66 165.278 1018.79 Q165.278 1021.91 167.177 1023.69 Q169.098 1025.48 172.431 1025.48 Q175.764 1025.48 177.686 1023.69 Q179.607 1021.89 179.607 1018.79 Q179.607 1015.66 177.686 1013.88 Q175.788 1012.1 172.431 1012.1 M167.755 1010.11 Q164.746 1009.37 163.056 1007.31 Q161.39 1005.25 161.39 1002.28 Q161.39 998.139 164.329 995.732 Q167.292 993.325 172.431 993.325 Q177.593 993.325 180.533 995.732 Q183.473 998.139 183.473 1002.28 Q183.473 1005.25 181.783 1007.31 Q180.116 1009.37 177.13 1010.11 Q180.51 1010.89 182.385 1013.19 Q184.283 1015.48 184.283 1018.79 Q184.283 1023.81 181.204 1026.5 Q178.149 1029.18 172.431 1029.18 Q166.714 1029.18 163.635 1026.5 Q160.579 1023.81 160.579 1018.79 Q160.579 1015.48 162.477 1013.19 Q164.376 1010.89 167.755 1010.11 M166.042 1002.72 Q166.042 1005.41 167.709 1006.91 Q169.399 1008.42 172.431 1008.42 Q175.44 1008.42 177.13 1006.91 Q178.843 1005.41 178.843 1002.72 Q178.843 1000.04 177.13 998.533 Q175.44 997.028 172.431 997.028 Q169.399 997.028 167.709 998.533 Q166.042 1000.04 166.042 1002.72 Z" fill="#000000" fill-rule="nonzero" fill-opacity="1" /><path clip-path="url(#clip680)" d="M192.639 993.95 L210.996 993.95 L210.996 997.885 L196.922 997.885 L196.922 1006.36 Q197.94 1006.01 198.959 1005.85 Q199.977 1005.66 200.996 1005.66 Q206.783 1005.66 210.162 1008.83 Q213.542 1012.01 213.542 1017.42 Q213.542 1023 210.07 1026.1 Q206.598 1029.18 200.278 1029.18 Q198.102 1029.18 195.834 1028.81 Q193.588 1028.44 191.181 1027.7 L191.181 1023 Q193.264 1024.13 195.487 1024.69 Q197.709 1025.25 200.186 1025.25 Q204.19 1025.25 206.528 1023.14 Q208.866 1021.03 208.866 1017.42 Q208.866 1013.81 206.528 1011.7 Q204.19 1009.6 200.186 1009.6 Q198.311 1009.6 196.436 1010.01 Q194.584 1010.43 192.639 1011.31 L192.639 993.95 Z" fill="#000000" fill-rule="nonzero" fill-opacity="1" /><path clip-path="url(#clip680)" d="M126.205 688.68 Q122.593 688.68 120.765 692.245 Q118.959 695.787 118.959 702.916 Q118.959 710.023 120.765 713.588 Q122.593 717.129 126.205 717.129 Q129.839 717.129 131.644 713.588 Q133.473 710.023 133.473 702.916 Q133.473 695.787 131.644 692.245 Q129.839 688.68 126.205 688.68 M126.205 684.977 Q132.015 684.977 135.07 689.583 Q138.149 694.166 138.149 702.916 Q138.149 711.643 135.07 716.25 Q132.015 720.833 126.205 720.833 Q120.394 720.833 117.316 716.25 Q114.26 711.643 114.26 702.916 Q114.26 694.166 117.316 689.583 Q120.394 684.977 126.205 684.977 Z" fill="#000000" fill-rule="nonzero" fill-opacity="1" /><path clip-path="url(#clip680)" d="M146.366 714.282 L151.251 714.282 L151.251 720.162 L146.366 720.162 L146.366 714.282 Z" fill="#000000" fill-rule="nonzero" fill-opacity="1" /><path clip-path="url(#clip680)" d="M161.575 719.444 L161.575 715.185 Q163.334 716.018 165.14 716.458 Q166.945 716.898 168.681 716.898 Q173.311 716.898 175.741 713.796 Q178.195 710.671 178.542 704.328 Q177.2 706.319 175.139 707.384 Q173.079 708.449 170.579 708.449 Q165.394 708.449 162.362 705.324 Q159.353 702.176 159.353 696.736 Q159.353 691.412 162.501 688.194 Q165.649 684.977 170.88 684.977 Q176.876 684.977 180.024 689.583 Q183.195 694.166 183.195 702.916 Q183.195 711.088 179.306 715.972 Q175.44 720.833 168.889 720.833 Q167.13 720.833 165.325 720.486 Q163.519 720.138 161.575 719.444 M170.88 704.791 Q174.028 704.791 175.857 702.639 Q177.709 700.486 177.709 696.736 Q177.709 693.009 175.857 690.856 Q174.028 688.68 170.88 688.68 Q167.732 688.68 165.88 690.856 Q164.052 693.009 164.052 696.736 Q164.052 700.486 165.88 702.639 Q167.732 704.791 170.88 704.791 Z" fill="#000000" fill-rule="nonzero" fill-opacity="1" /><path clip-path="url(#clip680)" d="M201.598 688.68 Q197.987 688.68 196.158 692.245 Q194.352 695.787 194.352 702.916 Q194.352 710.023 196.158 713.588 Q197.987 717.129 201.598 717.129 Q205.232 717.129 207.037 713.588 Q208.866 710.023 208.866 702.916 Q208.866 695.787 207.037 692.245 Q205.232 688.68 201.598 688.68 M201.598 684.977 Q207.408 684.977 210.463 689.583 Q213.542 694.166 213.542 702.916 Q213.542 711.643 210.463 716.25 Q207.408 720.833 201.598 720.833 Q195.787 720.833 192.709 716.25 Q189.653 711.643 189.653 702.916 Q189.653 694.166 192.709 689.583 Q195.787 684.977 201.598 684.977 Z" fill="#000000" fill-rule="nonzero" fill-opacity="1" /><path clip-path="url(#clip680)" d="M127.2 380.332 Q123.589 380.332 121.76 383.897 Q119.955 387.439 119.955 394.568 Q119.955 401.675 121.76 405.24 Q123.589 408.781 127.2 408.781 Q130.834 408.781 132.64 405.24 Q134.468 401.675 134.468 394.568 Q134.468 387.439 132.64 383.897 Q130.834 380.332 127.2 380.332 M127.2 376.629 Q133.01 376.629 136.066 381.235 Q139.144 385.818 139.144 394.568 Q139.144 403.295 136.066 407.902 Q133.01 412.485 127.2 412.485 Q121.39 412.485 118.311 407.902 Q115.256 403.295 115.256 394.568 Q115.256 385.818 118.311 381.235 Q121.39 376.629 127.2 376.629 Z" fill="#000000" fill-rule="nonzero" fill-opacity="1" /><path clip-path="url(#clip680)" d="M147.362 405.934 L152.246 405.934 L152.246 411.814 L147.362 411.814 L147.362 405.934 Z" fill="#000000" fill-rule="nonzero" fill-opacity="1" /><path clip-path="url(#clip680)" d="M162.57 411.096 L162.57 406.837 Q164.329 407.67 166.135 408.11 Q167.94 408.55 169.677 408.55 Q174.306 408.55 176.737 405.448 Q179.19 402.323 179.538 395.98 Q178.195 397.971 176.135 399.036 Q174.075 400.101 171.575 400.101 Q166.39 400.101 163.357 396.976 Q160.348 393.828 160.348 388.388 Q160.348 383.064 163.496 379.846 Q166.644 376.629 171.876 376.629 Q177.871 376.629 181.019 381.235 Q184.19 385.818 184.19 394.568 Q184.19 402.74 180.301 407.624 Q176.436 412.485 169.885 412.485 Q168.126 412.485 166.32 412.138 Q164.515 411.79 162.57 411.096 M171.876 396.443 Q175.024 396.443 176.852 394.291 Q178.704 392.138 178.704 388.388 Q178.704 384.661 176.852 382.508 Q175.024 380.332 171.876 380.332 Q168.727 380.332 166.876 382.508 Q165.047 384.661 165.047 388.388 Q165.047 392.138 166.876 394.291 Q168.727 396.443 171.876 396.443 Z" fill="#000000" fill-rule="nonzero" fill-opacity="1" /><path clip-path="url(#clip680)" d="M192.639 377.254 L210.996 377.254 L210.996 381.189 L196.922 381.189 L196.922 389.661 Q197.94 389.314 198.959 389.152 Q199.977 388.967 200.996 388.967 Q206.783 388.967 210.162 392.138 Q213.542 395.309 213.542 400.726 Q213.542 406.304 210.07 409.406 Q206.598 412.485 200.278 412.485 Q198.102 412.485 195.834 412.115 Q193.588 411.744 191.181 411.003 L191.181 406.304 Q193.264 407.439 195.487 407.994 Q197.709 408.55 200.186 408.55 Q204.19 408.55 206.528 406.443 Q208.866 404.337 208.866 400.726 Q208.866 397.115 206.528 395.008 Q204.19 392.902 200.186 392.902 Q198.311 392.902 196.436 393.318 Q194.584 393.735 192.639 394.615 L192.639 377.254 Z" fill="#000000" fill-rule="nonzero" fill-opacity="1" /><path clip-path="url(#clip680)" d="M117.015 99.5305 L124.654 99.5305 L124.654 73.1649 L116.343 74.8316 L116.343 70.5723 L124.607 68.9057 L129.283 68.9057 L129.283 99.5305 L136.922 99.5305 L136.922 103.466 L117.015 103.466 L117.015 99.5305 Z" fill="#000000" fill-rule="nonzero" fill-opacity="1" /><path clip-path="url(#clip680)" d="M146.366 97.5861 L151.251 97.5861 L151.251 103.466 L146.366 103.466 L146.366 97.5861 Z" fill="#000000" fill-rule="nonzero" fill-opacity="1" /><path clip-path="url(#clip680)" d="M171.436 71.9844 Q167.825 71.9844 165.996 75.5492 Q164.19 79.0908 164.19 86.2204 Q164.19 93.3268 165.996 96.8916 Q167.825 100.433 171.436 100.433 Q175.07 100.433 176.876 96.8916 Q178.704 93.3268 178.704 86.2204 Q178.704 79.0908 176.876 75.5492 Q175.07 71.9844 171.436 71.9844 M171.436 68.2807 Q177.246 68.2807 180.301 72.8871 Q183.38 77.4704 183.38 86.2204 Q183.38 94.9472 180.301 99.5537 Q177.246 104.137 171.436 104.137 Q165.626 104.137 162.547 99.5537 Q159.491 94.9472 159.491 86.2204 Q159.491 77.4704 162.547 72.8871 Q165.626 68.2807 171.436 68.2807 Z" fill="#000000" fill-rule="nonzero" fill-opacity="1" /><path clip-path="url(#clip680)" d="M201.598 71.9844 Q197.987 71.9844 196.158 75.5492 Q194.352 79.0908 194.352 86.2204 Q194.352 93.3268 196.158 96.8916 Q197.987 100.433 201.598 100.433 Q205.232 100.433 207.037 96.8916 Q208.866 93.3268 208.866 86.2204 Q208.866 79.0908 207.037 75.5492 Q205.232 71.9844 201.598 71.9844 M201.598 68.2807 Q207.408 68.2807 210.463 72.8871 Q213.542 77.4704 213.542 86.2204 Q213.542 94.9472 210.463 99.5537 Q207.408 104.137 201.598 104.137 Q195.787 104.137 192.709 99.5537 Q189.653 94.9472 189.653 86.2204 Q189.653 77.4704 192.709 72.8871 Q195.787 68.2807 201.598 68.2807 Z" fill="#000000" fill-rule="nonzero" fill-opacity="1" /><path clip-path="url(#clip680)" d="M49.9359 796.466 L28.3562 796.466 L28.3562 790.61 L49.7131 790.61 Q54.7739 790.61 57.3202 788.636 Q59.8346 786.663 59.8346 782.716 Q59.8346 777.974 56.8109 775.236 Q53.7872 772.467 48.5673 772.467 L28.3562 772.467 L28.3562 766.611 L64.0042 766.611 L64.0042 772.467 L58.5296 772.467 Q61.7762 774.6 63.3676 777.433 Q64.9272 780.233 64.9272 783.957 Q64.9272 790.1 61.1078 793.283 Q57.2883 796.466 49.9359 796.466 M27.4968 781.729 L27.4968 781.729 Z" fill="#000000" fill-rule="nonzero" fill-opacity="1" /><path clip-path="url(#clip680)" d="M14.479 755.089 L14.479 741.594 L19.0304 741.594 L19.0304 749.232 L68.0464 749.232 L68.0464 741.594 L72.5979 741.594 L72.5979 755.089 L14.479 755.089 Z" fill="#000000" fill-rule="nonzero" fill-opacity="1" /><path clip-path="url(#clip680)" d="M58.5933 722.751 L58.5933 700.312 L64.0042 700.312 L64.0042 730.485 L58.5933 730.485 Q54.8057 726.825 48.44 720.523 Q42.0425 714.189 40.1964 712.566 Q36.7271 709.479 34.34 708.269 Q31.921 707.028 29.5975 707.028 Q25.8099 707.028 23.4228 709.701 Q21.0356 712.343 21.0356 716.608 Q21.0356 719.632 22.086 723.006 Q23.1363 726.348 25.2688 730.167 L18.7758 730.167 Q17.2162 726.284 16.4205 722.91 Q15.6248 719.536 15.6248 716.736 Q15.6248 709.351 19.3169 704.959 Q23.009 700.567 29.1837 700.567 Q32.112 700.567 34.7537 701.681 Q37.3637 702.763 40.9285 705.659 Q41.8515 706.455 46.2757 710.72 Q50.668 714.985 58.5933 722.751 Z" fill="#000000" fill-rule="nonzero" fill-opacity="1" /><path clip-path="url(#clip680)" d="M14.479 673.958 L72.5979 673.958 L72.5979 687.453 L68.0464 687.453 L68.0464 679.846 L19.0304 679.846 L19.0304 687.453 L14.479 687.453 L14.479 673.958 Z" fill="#000000" fill-rule="nonzero" fill-opacity="1" /><polyline clip-path="url(#clip682)" style="stroke:#009af9; stroke-linecap:round; stroke-linejoin:round; stroke-width:4; stroke-opacity:1; fill:none" points="309.067,86.1857 2293.23,1384.24 "/>
<path clip-path="url(#clip680)" d="M1834.02 196.789 L2282.65 196.789 L2282.65 93.1086 L1834.02 93.1086  Z" fill="#ffffff" fill-rule="evenodd" fill-opacity="1"/>
<polyline clip-path="url(#clip680)" style="stroke:#000000; stroke-linecap:round; stroke-linejoin:round; stroke-width:4; stroke-opacity:1; fill:none" points="1834.02,196.789 2282.65,196.789 2282.65,93.1086 1834.02,93.1086 1834.02,196.789 "/>
<polyline clip-path="url(#clip680)" style="stroke:#009af9; stroke-linecap:round; stroke-linejoin:round; stroke-width:4; stroke-opacity:1; fill:none" points="1857.39,144.949 1997.6,144.949 "/>
<path clip-path="url(#clip680)" d="M2031.6 126.257 Q2028.49 131.581 2026.99 136.789 Q2025.48 141.997 2025.48 147.344 Q2025.48 152.692 2026.99 157.946 Q2028.52 163.178 2031.6 168.479 L2027.89 168.479 Q2024.42 163.039 2022.68 157.784 Q2020.97 152.53 2020.97 147.344 Q2020.97 142.182 2022.68 136.951 Q2024.4 131.72 2027.89 126.257 L2031.6 126.257 Z" fill="#000000" fill-rule="nonzero" fill-opacity="1" /><path clip-path="url(#clip680)" d="M2039.42 151.997 L2039.42 136.303 L2043.68 136.303 L2043.68 151.835 Q2043.68 155.516 2045.11 157.368 Q2046.55 159.196 2049.42 159.196 Q2052.87 159.196 2054.86 156.997 Q2056.87 154.798 2056.87 151.002 L2056.87 136.303 L2061.13 136.303 L2061.13 162.229 L2056.87 162.229 L2056.87 158.247 Q2055.32 160.608 2053.26 161.766 Q2051.23 162.9 2048.52 162.9 Q2044.05 162.9 2041.73 160.122 Q2039.42 157.344 2039.42 151.997 M2050.14 135.678 L2050.14 135.678 Z" fill="#000000" fill-rule="nonzero" fill-opacity="1" /><path clip-path="url(#clip680)" d="M2069.51 126.21 L2079.33 126.21 L2079.33 129.52 L2073.77 129.52 L2073.77 165.168 L2079.33 165.168 L2079.33 168.479 L2069.51 168.479 L2069.51 126.21 Z" fill="#000000" fill-rule="nonzero" fill-opacity="1" /><path clip-path="url(#clip680)" d="M2089.81 158.293 L2097.45 158.293 L2097.45 131.928 L2089.14 133.595 L2089.14 129.335 L2097.41 127.669 L2102.08 127.669 L2102.08 158.293 L2109.72 158.293 L2109.72 162.229 L2089.81 162.229 L2089.81 158.293 Z" fill="#000000" fill-rule="nonzero" fill-opacity="1" /><path clip-path="url(#clip680)" d="M2128.52 126.21 L2128.52 168.479 L2118.7 168.479 L2118.7 165.168 L2124.23 165.168 L2124.23 129.52 L2118.7 129.52 L2118.7 126.21 L2128.52 126.21 Z" fill="#000000" fill-rule="nonzero" fill-opacity="1" /><path clip-path="url(#clip680)" d="M2138.15 156.349 L2143.03 156.349 L2143.03 160.33 L2139.23 167.738 L2136.25 167.738 L2138.15 160.33 L2138.15 156.349 Z" fill="#000000" fill-rule="nonzero" fill-opacity="1" /><path clip-path="url(#clip680)" d="M2151.69 151.997 L2151.69 136.303 L2155.95 136.303 L2155.95 151.835 Q2155.95 155.516 2157.38 157.368 Q2158.82 159.196 2161.69 159.196 Q2165.14 159.196 2167.13 156.997 Q2169.14 154.798 2169.14 151.002 L2169.14 136.303 L2173.4 136.303 L2173.4 162.229 L2169.14 162.229 L2169.14 158.247 Q2167.59 160.608 2165.53 161.766 Q2163.49 162.9 2160.78 162.9 Q2156.32 162.9 2154 160.122 Q2151.69 157.344 2151.69 151.997 M2162.41 135.678 L2162.41 135.678 Z" fill="#000000" fill-rule="nonzero" fill-opacity="1" /><path clip-path="url(#clip680)" d="M2181.78 126.21 L2191.59 126.21 L2191.59 129.52 L2186.04 129.52 L2186.04 165.168 L2191.59 165.168 L2191.59 168.479 L2181.78 168.479 L2181.78 126.21 Z" fill="#000000" fill-rule="nonzero" fill-opacity="1" /><path clip-path="url(#clip680)" d="M2205.3 158.293 L2221.62 158.293 L2221.62 162.229 L2199.67 162.229 L2199.67 158.293 Q2202.34 155.539 2206.92 150.909 Q2211.53 146.256 2212.71 144.914 Q2214.95 142.391 2215.83 140.655 Q2216.73 138.895 2216.73 137.206 Q2216.73 134.451 2214.79 132.715 Q2212.87 130.979 2209.77 130.979 Q2207.57 130.979 2205.11 131.743 Q2202.68 132.507 2199.91 134.057 L2199.91 129.335 Q2202.73 128.201 2205.18 127.622 Q2207.64 127.044 2209.67 127.044 Q2215.04 127.044 2218.24 129.729 Q2221.43 132.414 2221.43 136.905 Q2221.43 139.034 2220.62 140.956 Q2219.84 142.854 2217.73 145.446 Q2217.15 146.118 2214.05 149.335 Q2210.95 152.53 2205.3 158.293 Z" fill="#000000" fill-rule="nonzero" fill-opacity="1" /><path clip-path="url(#clip680)" d="M2240.78 126.21 L2240.78 168.479 L2230.97 168.479 L2230.97 165.168 L2236.5 165.168 L2236.5 129.52 L2230.97 129.52 L2230.97 126.21 L2240.78 126.21 Z" fill="#000000" fill-rule="nonzero" fill-opacity="1" /><path clip-path="url(#clip680)" d="M2248.65 126.257 L2252.36 126.257 Q2255.83 131.72 2257.54 136.951 Q2259.28 142.182 2259.28 147.344 Q2259.28 152.53 2257.54 157.784 Q2255.83 163.039 2252.36 168.479 L2248.65 168.479 Q2251.73 163.178 2253.24 157.946 Q2254.77 152.692 2254.77 147.344 Q2254.77 141.997 2253.24 136.789 Q2251.73 131.581 2248.65 126.257 Z" fill="#000000" fill-rule="nonzero" fill-opacity="1" /></svg>
